<?xml version="1.0" encoding="UTF-8" standalone="no"?>
<!-- Generated by graphviz version 2.38.0 (20140413.2041)
 -->

<!-- Title: Ontology Pages: 1 -->

<svg
   xmlns:dc="http://purl.org/dc/elements/1.1/"
   xmlns:cc="http://creativecommons.org/ns#"
   xmlns:rdf="http://www.w3.org/1999/02/22-rdf-syntax-ns#"
   xmlns:svg="http://www.w3.org/2000/svg"
   xmlns="http://www.w3.org/2000/svg"
   xmlns:sodipodi="http://sodipodi.sourceforge.net/DTD/sodipodi-0.dtd"
   xmlns:inkscape="http://www.inkscape.org/namespaces/inkscape"
   width="164.14607pt"
   height="167.15987pt"
   viewBox="0 0 164.69323 167.15987"
   id="svg2"
   version="1.1"
   inkscape:version="0.91 r13725"
   sodipodi:docname="ontology.svg">
  <metadata
     id="metadata139">
    <rdf:RDF>
      <cc:Work
         rdf:about="">
        <dc:format>image/svg+xml</dc:format>
        <dc:type
           rdf:resource="http://purl.org/dc/dcmitype/StillImage" />
        <dc:title></dc:title>
      </cc:Work>
    </rdf:RDF>
  </metadata>
  <defs
     id="defs137" />
  <sodipodi:namedview
     pagecolor="#ffffff"
     bordercolor="#666666"
     borderopacity="1"
     objecttolerance="10"
     gridtolerance="10"
     guidetolerance="10"
     inkscape:pageopacity="0"
     inkscape:pageshadow="2"
     inkscape:window-width="1920"
     inkscape:window-height="894"
     id="namedview135"
     showgrid="false"
     inkscape:zoom="2.6435992"
     inkscape:cx="-7.789288"
     inkscape:cy="102.52766"
     inkscape:window-x="0"
     inkscape:window-y="27"
     inkscape:window-maximized="1"
     inkscape:current-layer="svg2"
     fit-margin-top="0"
     fit-margin-left="0"
     fit-margin-right="0"
     fit-margin-bottom="0" />
  <polygon
     points="70.454,-396 70.454,-396 16.454,-396 16.454,-360 70.454,-360 "
     id="polygon12"
     style="fill:none;stroke:#000000"
     transform="translate(-12.410499,398.8367)" />
  <text
     x="31.043501"
     y="23.836693"
     font-size="10.00"
     id="text14"
     style="font-size:10px;font-family:Helvetica, sans-Serif;text-anchor:middle;fill:#88aa00">Access</text>
  <g
     class="node"
     id="node2"
     transform="translate(89.74832,326.8367)">
    <title
       id="title17">Look</title>
    <ellipse
       style="fill:none;stroke:#000000"
       id="ellipse19"
       ry="18"
       rx="27"
       cy="-306"
       cx="43.453999" />
    <text
       style="font-size:10px;font-family:Helvetica, sans-Serif;text-anchor:middle;fill:#0000ff"
       id="text21"
       font-size="10.00"
       y="-303"
       x="43.453999">Look</text>
  </g>
  <path
     sodipodi:nodetypes="cc"
     d="m 58.435699,20.591021 40.382318,0.0804"
     id="path26"
     inkscape:connector-curvature="0"
     style="fill:none;stroke:#000000" />
  <polygon
     points="46.9541,-334.104 43.454,-324.104 39.9541,-334.104 46.9541,-334.104 "
     id="polygon28"
     style="fill:#000000;stroke:#000000"
     transform="matrix(-0.00606963,-0.99998158,0.99998158,-0.00606963,429.92599,62.004731)" />
  <g
     class="node"
     id="node3"
     transform="translate(-12.410498,318.69023)">
    <title
       id="title31">Transfer</title>
    <ellipse
       style="fill:none;stroke:#000000"
       id="ellipse33"
       ry="18"
       rx="30.543501"
       cy="-234"
       cx="43.453999" />
    <text
       style="font-size:10px;font-family:Helvetica, sans-Serif;text-anchor:middle;fill:#0000ff"
       id="text35"
       font-size="10.00"
       y="-231"
       x="43.453999">Transfer</text>
  </g>
  <g
     class="node"
     id="node4"
     transform="translate(32.748316,246.69023)">
    <title
       id="title45">Move</title>
    <ellipse
       style="fill:none;stroke:#000000"
       id="ellipse47"
       ry="18"
       rx="27"
       cy="-162"
       cx="100.454" />
    <text
       style="font-size:10px;font-family:Helvetica, sans-Serif;text-anchor:middle;fill:#0000ff"
       id="text49"
       font-size="10.00"
       y="-159"
       x="100.454">Move</text>
  </g>
  <g
     class="node"
     id="node5"
     transform="translate(-34.410501,238.54376)">
    <title
       id="title59">Execute</title>
    <ellipse
       style="fill:none;stroke:#000000"
       id="ellipse61"
       ry="18"
       rx="30.198099"
       cy="-90"
       cx="65.454002" />
    <text
       style="font-size:10px;font-family:Helvetica, sans-Serif;text-anchor:middle;fill:#0000ff"
       id="text63"
       font-size="10.00"
       y="-87"
       x="65.454002">Execute</text>
  </g>
  <g
     class="node"
     id="node6"
     transform="translate(67.748316,166.54376)">
    <title
       id="title87">Cleanup</title>
    <ellipse
       style="fill:none;stroke:#000000"
       id="ellipse89"
       ry="18"
       rx="30.9909"
       cy="-18"
       cx="65.454002" />
    <text
       style="font-size:10px;font-family:Helvetica, sans-Serif;text-anchor:middle;fill:#0000ff"
       id="text91"
       font-size="10.00"
       y="-15"
       x="65.454002">Cleanup</text>
  </g>
  <polygon
     points="46.9541,-334.104 43.454,-324.104 39.9541,-334.104 46.9541,-334.104 "
     id="polygon28-5"
     style="fill:#000000;stroke:#000000"
     transform="translate(90.367683,390.29424)" />
  <path
     style="fill:none;fill-rule:evenodd;stroke:#000000;stroke-width:0.80266666px;stroke-linecap:butt;stroke-linejoin:miter;stroke-opacity:1"
     d="M 109.6603,31.540164 54.400282,72.226111"
     id="path4368"
     inkscape:connector-curvature="0" />
  <path
     style="fill:none;fill-rule:evenodd;stroke:#000000;stroke-width:0.80266666px;stroke-linecap:butt;stroke-linejoin:miter;stroke-opacity:1"
     d="M 118.76909,36.094559 51.364017,134.77316"
     id="path4370"
     inkscape:connector-curvature="0"
     sodipodi:nodetypes="cc" />
  <path
     style="fill:none;fill-rule:evenodd;stroke:#000000;stroke-width:0.80266666px;stroke-linecap:butt;stroke-linejoin:miter;stroke-opacity:1"
     d="m 133.64678,38.219948 c 0,25.808243 0,27.630003 0,27.630003 l 0.91088,0 0,0"
     id="path4372"
     inkscape:connector-curvature="0" />
  <path
     style="fill:none;fill-rule:evenodd;stroke:#000000;stroke-width:0.80266666px;stroke-linecap:butt;stroke-linejoin:miter;stroke-opacity:1"
     d="m 62.901823,78.602261 c 44.329467,-0.30362 44.936717,-0.30362 44.936717,-0.30362 l 0,0"
     id="path4374"
     inkscape:connector-curvature="0" />
  <path
     style="fill:none;fill-rule:evenodd;stroke:#000000;stroke-width:0.80266666px;stroke-linecap:butt;stroke-linejoin:miter;stroke-opacity:1"
     d="M 51.364017,97.730731 105.71315,139.32756"
     id="path4376"
     inkscape:connector-curvature="0" />
  <path
     style="fill:none;fill-rule:evenodd;stroke:#000000;stroke-width:0.80266666px;stroke-linecap:butt;stroke-linejoin:miter;stroke-opacity:1"
     d="m 133.95041,102.58876 c 0.30362,27.02276 0.30362,27.02276 0.30362,27.02276 l 0,0"
     id="path4378"
     inkscape:connector-curvature="0" />
  <path
     style="fill:none;fill-rule:evenodd;stroke:#000000;stroke-width:0.80266666px;stroke-linecap:butt;stroke-linejoin:miter;stroke-opacity:1"
     d="m 58.652427,92.113641 c 44.329463,-0.30362 44.936713,-0.30362 44.936713,-0.30362 l 0,0"
     id="path4374-7"
     inkscape:connector-curvature="0" />
  <path
     style="fill:none;fill-rule:evenodd;stroke:#000000;stroke-width:0.80266666px;stroke-linecap:butt;stroke-linejoin:miter;stroke-opacity:1"
     d="M 60.169184,142.97107 112.69656,97.730721"
     id="path4404"
     inkscape:connector-curvature="0"
     sodipodi:nodetypes="cc" />
  <path
     style="fill:none;fill-rule:evenodd;stroke:#000000;stroke-width:0.80266666px;stroke-linecap:butt;stroke-linejoin:miter;stroke-opacity:1"
     d="M 122.71623,101.67788 65.027208,147.52547"
     id="path4406"
     inkscape:connector-curvature="0"
     sodipodi:nodetypes="cc" />
  <polygon
     points="43.454,-324.104 39.9541,-334.104 46.9541,-334.104 46.9541,-334.104 "
     id="polygon28-5-1"
     style="fill:#000000;stroke:#000000"
     transform="matrix(0.57505692,0.81811341,-0.81811341,0.57505692,-235.77156,222.76182)" />
  <polygon
     points="39.9541,-334.104 46.9541,-334.104 46.9541,-334.104 43.454,-324.104 "
     id="polygon28-5-17"
     style="fill:#000000;stroke:#000000"
     transform="matrix(0.79041151,0.61257624,-0.61257624,0.79041151,-181.60228,363.55931)" />
  <polygon
     points="46.9541,-334.104 43.454,-324.104 39.9541,-334.104 46.9541,-334.104 "
     id="polygon28-5-6"
     style="fill:#000000;stroke:#000000"
     transform="matrix(-0.69289945,-0.72103421,0.72103421,-0.69289945,376.51998,-95.691414)" />
  <polygon
     points="46.9541,-334.104 43.454,-324.104 39.9541,-334.104 46.9541,-334.104 "
     id="polygon28-5-0"
     style="fill:#000000;stroke:#000000"
     transform="matrix(0.58751512,-0.80921319,0.80921319,0.58751512,341.50687,363.89812)" />
  <polygon
     points="39.9541,-334.104 46.9541,-334.104 46.9541,-334.104 43.454,-324.104 "
     id="polygon28-5-02"
     style="fill:#000000;stroke:#000000"
     transform="matrix(-0.01867492,-0.99982561,0.99982561,-0.01867492,432.63229,128.79324)" />
  <polygon
     points="39.9541,-334.104 46.9541,-334.104 46.9541,-334.104 43.454,-324.104 "
     id="polygon28-5-4"
     style="fill:#000000;stroke:#000000"
     transform="matrix(-0.02025662,0.99979481,-0.99979481,-0.02025662,-262.32229,28.372151)" />
  <polygon
     points="39.9541,-334.104 46.9541,-334.104 46.9541,-334.104 43.454,-324.104 "
     id="polygon28-5-5"
     style="fill:#000000;stroke:#000000"
     transform="translate(90.671309,453.65434)" />
  <polygon
     points="39.9541,-334.104 46.9541,-334.104 46.9541,-334.104 43.454,-324.104 "
     id="polygon28-5-3"
     style="fill:#000000;stroke:#000000"
     transform="matrix(0.65001687,0.75991978,-0.75991978,0.65001687,-211.59797,327.01606)" />
  <polygon
     points="46.9541,-334.104 46.9541,-334.104 43.454,-324.104 39.9541,-334.104 "
     id="polygon28-5-16"
     style="fill:#000000;stroke:#000000"
     transform="translate(-12.776376,452.95549)" />
  <path
     style="fill:none;fill-rule:evenodd;stroke:#000000;stroke-width:0.80266666px;stroke-linecap:butt;stroke-linejoin:miter;stroke-opacity:1"
     d="m 30.717416,103.02817 c 0,25.80824 0,27.63 0,27.63 l 0.91088,0 0,0"
     id="path4372-8"
     inkscape:connector-curvature="0" />
  <path
     style="fill:none;fill-rule:evenodd;stroke:#000000;stroke-width:0.80266666px;stroke-linecap:butt;stroke-linejoin:miter;stroke-opacity:1"
     d="m 59.75085,153.03973 c 44.32946,-0.30362 36.435171,-0.30362 36.435171,-0.30362"
     id="path4374-7-3"
     inkscape:connector-curvature="0"
     sodipodi:nodetypes="cc" />
  <polygon
     points="39.9541,-334.104 46.9541,-334.104 46.9541,-334.104 43.454,-324.104 "
     id="polygon28-5-02-0"
     style="fill:#000000;stroke:#000000"
     transform="matrix(-0.01867492,-0.99982564,0.99982564,-0.01867492,427.65818,190.32657)" />
</svg>
