<?xml version="1.0" encoding="UTF-8" standalone="no"?>
<!DOCTYPE svg PUBLIC "-//W3C//DTD SVG 1.1//EN"
 "http://www.w3.org/Graphics/SVG/1.1/DTD/svg11.dtd">
<!-- Generated by graphviz version 2.38.0 (20140413.2041)
 -->
<!-- Title: Ontology Pages: 1 -->
<svg width="135pt" height="404pt"
 viewBox="0.00 0.00 135.45 404.00" xmlns="http://www.w3.org/2000/svg" xmlns:xlink="http://www.w3.org/1999/xlink">
<g id="graph0" class="graph" transform="scale(1 1) rotate(0) translate(4 400)">
<title>Ontology</title>
<polygon fill="white" stroke="none" points="-4,4 -4,-400 131.454,-400 131.454,4 -4,4"/>
<!-- Access -->
<g id="node1" class="node"><title>Access</title>
<polygon fill="none" stroke="black" points="70.454,-396 16.454,-396 16.454,-360 70.454,-360 70.454,-396"/>
<text text-anchor="middle" x="43.454" y="-375" font-family="Helvetica,sans-Serif" font-size="10.00" fill="red">Access</text>
</g>
<!-- Look -->
<g id="node2" class="node"><title>Look</title>
<ellipse fill="none" stroke="black" cx="43.454" cy="-306" rx="27" ry="18"/>
<text text-anchor="middle" x="43.454" y="-303" font-family="Helvetica,sans-Serif" font-size="10.00" fill="blue">Look</text>
</g>
<!-- Access&#45;&gt;Look -->
<g id="edge1" class="edge"><title>Access&#45;&gt;Look</title>
<path fill="none" stroke="black" d="M43.454,-359.697C43.454,-351.983 43.454,-342.712 43.454,-334.112"/>
<polygon fill="black" stroke="black" points="46.9541,-334.104 43.454,-324.104 39.9541,-334.104 46.9541,-334.104"/>
</g>
<!-- Transfer -->
<g id="node3" class="node"><title>Transfer</title>
<ellipse fill="none" stroke="black" cx="43.454" cy="-234" rx="30.5435" ry="18"/>
<text text-anchor="middle" x="43.454" y="-231" font-family="Helvetica,sans-Serif" font-size="10.00" fill="blue">Transfer</text>
</g>
<!-- Look&#45;&gt;Transfer -->
<g id="edge2" class="edge"><title>Look&#45;&gt;Transfer</title>
<path fill="none" stroke="black" d="M43.454,-287.697C43.454,-279.983 43.454,-270.712 43.454,-262.112"/>
<polygon fill="black" stroke="black" points="46.9541,-262.104 43.454,-252.104 39.9541,-262.104 46.9541,-262.104"/>
</g>
<!-- Move -->
<g id="node4" class="node"><title>Move</title>
<ellipse fill="none" stroke="black" cx="100.454" cy="-162" rx="27" ry="18"/>
<text text-anchor="middle" x="100.454" y="-159" font-family="Helvetica,sans-Serif" font-size="10.00" fill="blue">Move</text>
</g>
<!-- Look&#45;&gt;Move -->
<g id="edge3" class="edge"><title>Look&#45;&gt;Move</title>
<path fill="none" stroke="black" d="M57.3899,-290.427C66.2036,-280.393 77.0952,-266.33 83.454,-252 92.1601,-232.38 96.415,-208.39 98.4904,-190.262"/>
<polygon fill="black" stroke="black" points="101.996,-190.382 99.4995,-180.085 95.0298,-189.691 101.996,-190.382"/>
</g>
<!-- Execute -->
<g id="node5" class="node"><title>Execute</title>
<ellipse fill="none" stroke="black" cx="65.454" cy="-90" rx="30.1981" ry="18"/>
<text text-anchor="middle" x="65.454" y="-87" font-family="Helvetica,sans-Serif" font-size="10.00" fill="blue">Execute</text>
</g>
<!-- Look&#45;&gt;Execute -->
<g id="edge4" class="edge"><title>Look&#45;&gt;Execute</title>
<path fill="none" stroke="black" d="M28.6094,-290.78C19.412,-280.895 8.43419,-266.866 3.45402,-252 -1.62848,-236.829 -0.197066,-231.578 3.45402,-216 12.1789,-178.774 33.7132,-139.935 48.9452,-115.623"/>
<polygon fill="black" stroke="black" points="51.9897,-117.358 54.4345,-107.05 46.0946,-113.584 51.9897,-117.358"/>
</g>
<!-- Transfer&#45;&gt;Move -->
<g id="edge5" class="edge"><title>Transfer&#45;&gt;Move</title>
<path fill="none" stroke="black" d="M51.1223,-216.411C57.9377,-206.746 67.8023,-194.462 77.0091,-184.112"/>
<polygon fill="black" stroke="black" points="79.6753,-186.383 83.8599,-176.65 74.5188,-181.649 79.6753,-186.383"/>
</g>
<!-- Transfer&#45;&gt;Execute -->
<g id="edge6" class="edge"><title>Transfer&#45;&gt;Execute</title>
<path fill="none" stroke="black" d="M46.1077,-215.871C49.8572,-191.67 56.7453,-147.211 61.21,-118.393"/>
<polygon fill="black" stroke="black" points="64.7185,-118.607 62.7909,-108.189 57.801,-117.535 64.7185,-118.607"/>
</g>
<!-- Cleanup -->
<g id="node6" class="node"><title>Cleanup</title>
<ellipse fill="none" stroke="black" cx="65.454" cy="-18" rx="30.9909" ry="18"/>
<text text-anchor="middle" x="65.454" y="-15" font-family="Helvetica,sans-Serif" font-size="10.00" fill="blue">Cleanup</text>
</g>
<!-- Transfer&#45;&gt;Cleanup -->
<g id="edge7" class="edge"><title>Transfer&#45;&gt;Cleanup</title>
<path fill="none" stroke="black" d="M37.1655,-216.06C27.0474,-186.173 9.88537,-122.472 26.454,-72 30.0183,-61.1424 36.7518,-50.6778 43.6335,-41.9567"/>
<polygon fill="black" stroke="black" points="46.4211,-44.0799 50.1783,-34.1737 41.0635,-39.5747 46.4211,-44.0799"/>
</g>
<!-- Move&#45;&gt;Transfer -->
<g id="edge8" class="edge"><title>Move&#45;&gt;Transfer</title>
<path fill="none" stroke="black" d="M92.9513,-179.354C86.2434,-188.894 76.5085,-201.045 67.3596,-211.369"/>
<polygon fill="black" stroke="black" points="64.6997,-209.091 60.5375,-218.834 69.8671,-213.814 64.6997,-209.091"/>
</g>
<!-- Move&#45;&gt;Execute -->
<g id="edge9" class="edge"><title>Move&#45;&gt;Execute</title>
<path fill="none" stroke="black" d="M87.3954,-146.155C82.1647,-137.787 76.5061,-127.088 72.0629,-117.344"/>
<polygon fill="black" stroke="black" points="75.2348,-115.859 68.0857,-108.04 68.7982,-118.611 75.2348,-115.859"/>
</g>
<!-- Move&#45;&gt;Cleanup -->
<g id="edge10" class="edge"><title>Move&#45;&gt;Cleanup</title>
<path fill="none" stroke="black" d="M104.698,-144.116C108.499,-125.848 112.366,-96.1005 104.454,-72 100.89,-61.1424 94.1563,-50.6778 87.2745,-41.9567"/>
<polygon fill="black" stroke="black" points="89.8445,-39.5747 80.7297,-34.1737 84.487,-44.0799 89.8445,-39.5747"/>
</g>
<!-- Execute&#45;&gt;Move -->
<g id="edge11" class="edge"><title>Execute&#45;&gt;Move</title>
<path fill="none" stroke="black" d="M78.8309,-106.356C83.9589,-114.625 89.4636,-125.056 93.8117,-134.583"/>
<polygon fill="black" stroke="black" points="90.7115,-136.235 97.8597,-144.055 97.1483,-133.484 90.7115,-136.235"/>
</g>
<!-- Execute&#45;&gt;Cleanup -->
<g id="edge12" class="edge"><title>Execute&#45;&gt;Cleanup</title>
<path fill="none" stroke="black" d="M65.454,-71.6966C65.454,-63.9827 65.454,-54.7125 65.454,-46.1124"/>
<polygon fill="black" stroke="black" points="68.9541,-46.1043 65.454,-36.1043 61.9541,-46.1044 68.9541,-46.1043"/>
</g>
</g>
</svg>
