<?xml version="1.0" encoding="UTF-8" standalone="no"?>
<!DOCTYPE svg PUBLIC "-//W3C//DTD SVG 1.1//EN"
 "http://www.w3.org/Graphics/SVG/1.1/DTD/svg11.dtd">
<!-- Generated by graphviz version 2.38.0 (20140413.2041)
 -->
<!-- Title: CommandAbstraction Pages: 1 -->
<svg width="576pt" height="254pt"
 viewBox="0.00 0.00 576.00 254.18" xmlns="http://www.w3.org/2000/svg" xmlns:xlink="http://www.w3.org/1999/xlink">
<g id="graph0" class="graph" transform="scale(0.409964 0.409964) rotate(0) translate(4 616)">
<title>CommandAbstraction</title>
<polygon fill="white" stroke="none" points="-4,4 -4,-616 1401,-616 1401,4 -4,4"/>
<!-- Access -->
<g id="node1" class="node"><title>Access</title>
<ellipse fill="none" stroke="black" cx="213" cy="-522" rx="32.76" ry="18"/>
<text text-anchor="middle" x="213" y="-518.4" font-family="Helvetica,sans-Serif" font-size="12.00" fill="blue">Access</text>
</g>
<!-- Shell -->
<g id="node8" class="node"><title>Shell</title>
<polygon fill="none" stroke="black" points="101,-468 47,-468 47,-432 101,-432 101,-468"/>
<text text-anchor="middle" x="74" y="-447" font-family="Helvetica,sans-Serif" font-size="10.00">Shell</text>
</g>
<!-- Access&#45;&gt;Shell -->
<g id="edge7" class="edge"><title>Access&#45;&gt;Shell</title>
<path fill="none" stroke="black" d="M189.421,-509.125C167.717,-498.196 135.2,-481.82 110.205,-469.233"/>
<polygon fill="black" stroke="black" points="111.538,-465.985 101.032,-464.613 108.39,-472.237 111.538,-465.985"/>
</g>
<!-- Look -->
<g id="node2" class="node"><title>Look</title>
<ellipse fill="none" stroke="black" cx="429" cy="-522" rx="27" ry="18"/>
<text text-anchor="middle" x="429" y="-518.4" font-family="Helvetica,sans-Serif" font-size="12.00" fill="blue">Look</text>
</g>
<!-- LookSys -->
<g id="node9" class="node"><title>LookSys</title>
<polygon fill="none" stroke="black" points="238.356,-468 183.644,-468 183.644,-432 238.356,-432 238.356,-468"/>
<text text-anchor="middle" x="211" y="-447" font-family="Helvetica,sans-Serif" font-size="10.00">LookSys</text>
</g>
<!-- Look&#45;&gt;LookSys -->
<g id="edge8" class="edge"><title>Look&#45;&gt;LookSys</title>
<path fill="none" stroke="black" d="M405.255,-513.376C367.398,-501.22 293.063,-477.351 248.128,-462.922"/>
<polygon fill="black" stroke="black" points="249.057,-459.544 238.466,-459.819 246.917,-466.209 249.057,-459.544"/>
</g>
<!-- LookDisk -->
<g id="node10" class="node"><title>LookDisk</title>
<polygon fill="none" stroke="black" points="397.628,-468 340.372,-468 340.372,-432 397.628,-432 397.628,-468"/>
<text text-anchor="middle" x="369" y="-447" font-family="Helvetica,sans-Serif" font-size="10.00">LookDisk</text>
</g>
<!-- Look&#45;&gt;LookDisk -->
<g id="edge9" class="edge"><title>Look&#45;&gt;LookDisk</title>
<path fill="none" stroke="black" d="M415.981,-505.811C408.475,-497.054 398.854,-485.83 390.276,-475.822"/>
<polygon fill="black" stroke="black" points="392.845,-473.442 383.68,-468.127 387.531,-477.997 392.845,-473.442"/>
</g>
<!-- LookNet -->
<g id="node11" class="node"><title>LookNet</title>
<polygon fill="none" stroke="black" points="515,-468 461,-468 461,-432 515,-432 515,-468"/>
<text text-anchor="middle" x="488" y="-447" font-family="Helvetica,sans-Serif" font-size="10.00">LookNet</text>
</g>
<!-- Look&#45;&gt;LookNet -->
<g id="edge10" class="edge"><title>Look&#45;&gt;LookNet</title>
<path fill="none" stroke="black" d="M441.802,-505.811C449.183,-497.054 458.643,-485.83 467.079,-475.822"/>
<polygon fill="black" stroke="black" points="469.796,-478.029 473.565,-468.127 464.444,-473.517 469.796,-478.029"/>
</g>
<!-- Transfer -->
<g id="node3" class="node"><title>Transfer</title>
<ellipse fill="none" stroke="black" cx="796" cy="-522" rx="36.4485" ry="18"/>
<text text-anchor="middle" x="796" y="-518.4" font-family="Helvetica,sans-Serif" font-size="12.00" fill="blue">Transfer</text>
</g>
<!-- Download -->
<g id="node12" class="node"><title>Download</title>
<polygon fill="none" stroke="black" points="746.475,-468 685.525,-468 685.525,-432 746.475,-432 746.475,-468"/>
<text text-anchor="middle" x="716" y="-447" font-family="Helvetica,sans-Serif" font-size="10.00">Download</text>
</g>
<!-- Transfer&#45;&gt;Download -->
<g id="edge11" class="edge"><title>Transfer&#45;&gt;Download</title>
<path fill="none" stroke="black" d="M778.641,-505.811C768.336,-496.794 755.041,-485.161 743.352,-474.933"/>
<polygon fill="black" stroke="black" points="745.404,-472.078 735.573,-468.127 740.794,-477.346 745.404,-472.078"/>
</g>
<!-- Exfil -->
<g id="node13" class="node"><title>Exfil</title>
<polygon fill="none" stroke="black" points="823,-468 769,-468 769,-432 823,-432 823,-468"/>
<text text-anchor="middle" x="796" y="-447" font-family="Helvetica,sans-Serif" font-size="10.00">Exfil</text>
</g>
<!-- Transfer&#45;&gt;Exfil -->
<g id="edge12" class="edge"><title>Transfer&#45;&gt;Exfil</title>
<path fill="none" stroke="black" d="M796,-503.697C796,-495.983 796,-486.712 796,-478.112"/>
<polygon fill="black" stroke="black" points="799.5,-478.104 796,-468.104 792.5,-478.104 799.5,-478.104"/>
</g>
<!-- Move -->
<g id="node4" class="node"><title>Move</title>
<ellipse fill="none" stroke="black" cx="953" cy="-522" rx="27.0358" ry="18"/>
<text text-anchor="middle" x="953" y="-518.4" font-family="Helvetica,sans-Serif" font-size="12.00" fill="blue">Move</text>
</g>
<!-- MoveDisk -->
<g id="node14" class="node"><title>MoveDisk</title>
<polygon fill="none" stroke="black" points="906.897,-468 847.103,-468 847.103,-432 906.897,-432 906.897,-468"/>
<text text-anchor="middle" x="877" y="-447" font-family="Helvetica,sans-Serif" font-size="10.00">MoveDisk</text>
</g>
<!-- Move&#45;&gt;MoveDisk -->
<g id="edge13" class="edge"><title>Move&#45;&gt;MoveDisk</title>
<path fill="none" stroke="black" d="M937.62,-506.834C927.753,-497.746 914.686,-485.71 903.211,-475.141"/>
<polygon fill="black" stroke="black" points="905.306,-472.313 895.58,-468.113 900.564,-477.462 905.306,-472.313"/>
</g>
<!-- MoveNet -->
<g id="node15" class="node"><title>MoveNet</title>
<polygon fill="none" stroke="black" points="981.015,-468 924.985,-468 924.985,-432 981.015,-432 981.015,-468"/>
<text text-anchor="middle" x="953" y="-447" font-family="Helvetica,sans-Serif" font-size="10.00">MoveNet</text>
</g>
<!-- Move&#45;&gt;MoveNet -->
<g id="edge14" class="edge"><title>Move&#45;&gt;MoveNet</title>
<path fill="none" stroke="black" d="M953,-503.697C953,-495.983 953,-486.712 953,-478.112"/>
<polygon fill="black" stroke="black" points="956.5,-478.104 953,-468.104 949.5,-478.104 956.5,-478.104"/>
</g>
<!-- ModifyDisk -->
<g id="node16" class="node"><title>ModifyDisk</title>
<polygon fill="none" stroke="black" points="1063.4,-468 998.603,-468 998.603,-432 1063.4,-432 1063.4,-468"/>
<text text-anchor="middle" x="1031" y="-447" font-family="Helvetica,sans-Serif" font-size="10.00">ModifyDisk</text>
</g>
<!-- Move&#45;&gt;ModifyDisk -->
<g id="edge15" class="edge"><title>Move&#45;&gt;ModifyDisk</title>
<path fill="none" stroke="black" d="M968.784,-506.834C979.009,-497.659 992.581,-485.479 1004.44,-474.837"/>
<polygon fill="black" stroke="black" points="1006.83,-477.397 1011.93,-468.113 1002.15,-472.187 1006.83,-477.397"/>
</g>
<!-- ModifyNet -->
<g id="node17" class="node"><title>ModifyNet</title>
<polygon fill="none" stroke="black" points="1142.51,-468 1081.49,-468 1081.49,-432 1142.51,-432 1142.51,-468"/>
<text text-anchor="middle" x="1112" y="-447" font-family="Helvetica,sans-Serif" font-size="10.00">ModifyNet</text>
</g>
<!-- Move&#45;&gt;ModifyNet -->
<g id="edge16" class="edge"><title>Move&#45;&gt;ModifyNet</title>
<path fill="none" stroke="black" d="M975.108,-511.267C1000.16,-500.236 1041.5,-482.037 1072.21,-468.518"/>
<polygon fill="black" stroke="black" points="1073.62,-471.719 1081.37,-464.486 1070.8,-465.312 1073.62,-471.719"/>
</g>
<!-- Execute -->
<g id="node5" class="node"><title>Execute</title>
<ellipse fill="none" stroke="black" cx="1129" cy="-522" rx="35.8911" ry="18"/>
<text text-anchor="middle" x="1129" y="-518.4" font-family="Helvetica,sans-Serif" font-size="12.00" fill="blue">Execute</text>
</g>
<!-- .*exe -->
<g id="node18" class="node"><title>.*exe</title>
<polygon fill="none" stroke="black" points="1215,-468 1161,-468 1161,-432 1215,-432 1215,-468"/>
<text text-anchor="middle" x="1188" y="-447" font-family="Helvetica,sans-Serif" font-size="10.00">.*exe</text>
</g>
<!-- Execute&#45;&gt;.*exe -->
<g id="edge17" class="edge"><title>Execute&#45;&gt;.*exe</title>
<path fill="none" stroke="black" d="M1142.39,-505.116C1149.61,-496.544 1158.7,-485.766 1166.85,-476.089"/>
<polygon fill="black" stroke="black" points="1169.66,-478.194 1173.43,-468.292 1164.3,-473.683 1169.66,-478.194"/>
</g>
<!-- Cleanup -->
<g id="node6" class="node"><title>Cleanup</title>
<ellipse fill="none" stroke="black" cx="1287" cy="-522" rx="36.5038" ry="18"/>
<text text-anchor="middle" x="1287" y="-518.4" font-family="Helvetica,sans-Serif" font-size="12.00" fill="blue">Cleanup</text>
</g>
<!-- del -->
<g id="node19" class="node"><title>del</title>
<polygon fill="none" stroke="black" points="1287,-468 1233,-468 1233,-432 1287,-432 1287,-468"/>
<text text-anchor="middle" x="1260" y="-447" font-family="Helvetica,sans-Serif" font-size="10.00">del</text>
</g>
<!-- Cleanup&#45;&gt;del -->
<g id="edge18" class="edge"><title>Cleanup&#45;&gt;del</title>
<path fill="none" stroke="black" d="M1280.46,-504.055C1277.43,-496.176 1273.74,-486.617 1270.33,-477.794"/>
<polygon fill="black" stroke="black" points="1273.53,-476.346 1266.66,-468.275 1267,-478.865 1273.53,-476.346"/>
</g>
<!-- erase -->
<g id="node20" class="node"><title>erase</title>
<polygon fill="none" stroke="black" points="1342,-396 1288,-396 1288,-360 1342,-360 1342,-396"/>
<text text-anchor="middle" x="1315" y="-375" font-family="Helvetica,sans-Serif" font-size="10.00">erase</text>
</g>
<!-- Cleanup&#45;&gt;erase -->
<g id="edge19" class="edge"><title>Cleanup&#45;&gt;erase</title>
<path fill="none" stroke="black" d="M1290.38,-503.871C1295.17,-479.564 1303.99,-434.819 1309.67,-406.013"/>
<polygon fill="black" stroke="black" points="1313.11,-406.677 1311.61,-396.189 1306.24,-405.323 1313.11,-406.677"/>
</g>
<!-- rm -->
<g id="node21" class="node"><title>rm</title>
<polygon fill="none" stroke="black" points="1397,-324 1343,-324 1343,-288 1397,-288 1397,-324"/>
<text text-anchor="middle" x="1370" y="-303" font-family="Helvetica,sans-Serif" font-size="10.00">rm</text>
</g>
<!-- Cleanup&#45;&gt;rm -->
<g id="edge20" class="edge"><title>Cleanup&#45;&gt;rm</title>
<path fill="none" stroke="black" d="M1295.92,-504.341C1301.47,-493.926 1308.72,-480.217 1315,-468 1331.36,-436.181 1339.17,-429.765 1351,-396 1358.08,-375.778 1363,-352.003 1366.05,-334.116"/>
<polygon fill="black" stroke="black" points="1369.53,-334.511 1367.67,-324.08 1362.62,-333.393 1369.53,-334.511"/>
</g>
<!-- Command -->
<g id="node7" class="node"><title>Command</title>
<ellipse fill="none" stroke="black" cx="874" cy="-594" rx="42.8153" ry="18"/>
<text text-anchor="middle" x="874" y="-590.4" font-family="Helvetica,sans-Serif" font-size="12.00" fill="red">Command</text>
</g>
<!-- Command&#45;&gt;Access -->
<g id="edge1" class="edge"><title>Command&#45;&gt;Access</title>
<path fill="none" stroke="black" stroke-dasharray="5,2" d="M832.651,-588.621C714.268,-576.084 374.872,-540.142 255.306,-527.48"/>
<polygon fill="black" stroke="black" points="255.406,-523.971 245.093,-526.399 254.668,-530.932 255.406,-523.971"/>
</g>
<!-- Command&#45;&gt;Look -->
<g id="edge2" class="edge"><title>Command&#45;&gt;Look</title>
<path fill="none" stroke="black" stroke-dasharray="5,2" d="M834.509,-586.788C748.922,-573.325 547.418,-541.628 465.045,-528.67"/>
<polygon fill="black" stroke="black" points="465.342,-525.174 454.92,-527.077 464.255,-532.089 465.342,-525.174"/>
</g>
<!-- Command&#45;&gt;Transfer -->
<g id="edge3" class="edge"><title>Command&#45;&gt;Transfer</title>
<path fill="none" stroke="black" stroke-dasharray="5,2" d="M856.689,-577.465C846.041,-567.909 832.23,-555.514 820.474,-544.963"/>
<polygon fill="black" stroke="black" points="822.507,-542.086 812.727,-538.011 817.832,-547.295 822.507,-542.086"/>
</g>
<!-- Command&#45;&gt;Move -->
<g id="edge4" class="edge"><title>Command&#45;&gt;Move</title>
<path fill="none" stroke="black" stroke-dasharray="5,2" d="M891.533,-577.465C902.794,-567.486 917.548,-554.413 929.779,-543.576"/>
<polygon fill="black" stroke="black" points="932.226,-546.084 937.389,-536.832 927.583,-540.845 932.226,-546.084"/>
</g>
<!-- Command&#45;&gt;Execute -->
<g id="edge5" class="edge"><title>Command&#45;&gt;Execute</title>
<path fill="none" stroke="black" stroke-dasharray="5,2" d="M908.922,-583.414C955.883,-570.522 1039.2,-547.652 1088.74,-534.051"/>
<polygon fill="black" stroke="black" points="1089.76,-537.401 1098.48,-531.378 1087.91,-530.651 1089.76,-537.401"/>
</g>
<!-- Command&#45;&gt;Cleanup -->
<g id="edge6" class="edge"><title>Command&#45;&gt;Cleanup</title>
<path fill="none" stroke="black" stroke-dasharray="5,2" d="M913.226,-586.351C990.56,-573.244 1162.2,-544.153 1243.14,-530.434"/>
<polygon fill="black" stroke="black" points="1243.74,-533.882 1253.01,-528.76 1242.57,-526.981 1243.74,-533.882"/>
</g>
<!-- cmd.exe -->
<g id="node22" class="node"><title>cmd.exe</title>
<polygon fill="none" stroke="black" points="54,-396 0,-396 0,-360 54,-360 54,-396"/>
<text text-anchor="middle" x="27" y="-375" font-family="Helvetica,sans-Serif" font-size="10.00">cmd.exe</text>
</g>
<!-- Shell&#45;&gt;cmd.exe -->
<g id="edge21" class="edge"><title>Shell&#45;&gt;cmd.exe</title>
<path fill="none" stroke="black" d="M62.382,-431.697C56.8612,-423.474 50.153,-413.483 44.0682,-404.421"/>
<polygon fill="black" stroke="black" points="46.9645,-402.456 38.4843,-396.104 41.1529,-406.358 46.9645,-402.456"/>
</g>
<!-- set -->
<g id="node23" class="node"><title>set</title>
<polygon fill="none" stroke="black" points="126,-396 72,-396 72,-360 126,-360 126,-396"/>
<text text-anchor="middle" x="99" y="-375" font-family="Helvetica,sans-Serif" font-size="10.00">set</text>
</g>
<!-- LookSys&#45;&gt;set -->
<g id="edge22" class="edge"><title>LookSys&#45;&gt;set</title>
<path fill="none" stroke="black" d="M183.602,-431.876C168.848,-422.655 150.475,-411.172 134.623,-401.265"/>
<polygon fill="black" stroke="black" points="136.45,-398.279 126.115,-395.947 132.74,-404.215 136.45,-398.279"/>
</g>
<!-- query -->
<g id="node24" class="node"><title>query</title>
<polygon fill="none" stroke="black" points="164,-324 110,-324 110,-288 164,-288 164,-324"/>
<text text-anchor="middle" x="137" y="-303" font-family="Helvetica,sans-Serif" font-size="10.00">query</text>
</g>
<!-- LookSys&#45;&gt;query -->
<g id="edge23" class="edge"><title>LookSys&#45;&gt;query</title>
<path fill="none" stroke="black" d="M199.437,-431.66C192.832,-421.463 184.582,-408.213 178,-396 166.9,-375.404 155.893,-351.25 148.083,-333.306"/>
<polygon fill="black" stroke="black" points="151.262,-331.839 144.093,-324.038 144.833,-334.607 151.262,-331.839"/>
</g>
<!-- tasklist -->
<g id="node25" class="node"><title>tasklist</title>
<polygon fill="none" stroke="black" points="202,-252 148,-252 148,-216 202,-216 202,-252"/>
<text text-anchor="middle" x="175" y="-231" font-family="Helvetica,sans-Serif" font-size="10.00">tasklist</text>
</g>
<!-- LookSys&#45;&gt;tasklist -->
<g id="edge24" class="edge"><title>LookSys&#45;&gt;tasklist</title>
<path fill="none" stroke="black" d="M208.115,-431.849C201.874,-394.753 187.08,-306.81 179.559,-262.103"/>
<polygon fill="black" stroke="black" points="183.009,-261.513 177.899,-252.232 176.106,-262.675 183.009,-261.513"/>
</g>
<!-- sc -->
<g id="node26" class="node"><title>sc</title>
<polygon fill="none" stroke="black" points="240,-180 186,-180 186,-144 240,-144 240,-180"/>
<text text-anchor="middle" x="213" y="-159" font-family="Helvetica,sans-Serif" font-size="10.00">sc</text>
</g>
<!-- LookSys&#45;&gt;sc -->
<g id="edge25" class="edge"><title>LookSys&#45;&gt;sc</title>
<path fill="none" stroke="black" d="M211.813,-431.819C212.262,-421.448 212.774,-407.968 213,-396 214.403,-321.617 213.79,-233.854 213.334,-190.326"/>
<polygon fill="black" stroke="black" points="216.833,-190.209 213.222,-180.248 209.833,-190.286 216.833,-190.209"/>
</g>
<!-- whoami -->
<g id="node27" class="node"><title>whoami</title>
<polygon fill="none" stroke="black" points="295,-108 241,-108 241,-72 295,-72 295,-108"/>
<text text-anchor="middle" x="268" y="-87" font-family="Helvetica,sans-Serif" font-size="10.00">whoami</text>
</g>
<!-- LookSys&#45;&gt;whoami -->
<g id="edge26" class="edge"><title>LookSys&#45;&gt;whoami</title>
<path fill="none" stroke="black" d="M222.81,-431.958C239.506,-406.158 268,-355.082 268,-307 268,-307 268,-307 268,-233 268,-192.996 268,-146.653 268,-118.08"/>
<polygon fill="black" stroke="black" points="271.5,-118.049 268,-108.049 264.5,-118.049 271.5,-118.049"/>
</g>
<!-- dir -->
<g id="node28" class="node"><title>dir</title>
<polygon fill="none" stroke="black" points="350,-396 296,-396 296,-360 350,-360 350,-396"/>
<text text-anchor="middle" x="323" y="-375" font-family="Helvetica,sans-Serif" font-size="10.00">dir</text>
</g>
<!-- LookDisk&#45;&gt;dir -->
<g id="edge27" class="edge"><title>LookDisk&#45;&gt;dir</title>
<path fill="none" stroke="black" d="M357.629,-431.697C352.282,-423.559 345.796,-413.689 339.889,-404.701"/>
<polygon fill="black" stroke="black" points="342.657,-402.539 334.24,-396.104 336.807,-406.384 342.657,-402.539"/>
</g>
<!-- ipconfig -->
<g id="node29" class="node"><title>ipconfig</title>
<polygon fill="none" stroke="black" points="422,-396 368,-396 368,-360 422,-360 422,-396"/>
<text text-anchor="middle" x="395" y="-375" font-family="Helvetica,sans-Serif" font-size="10.00">ipconfig</text>
</g>
<!-- LookNet&#45;&gt;ipconfig -->
<g id="edge28" class="edge"><title>LookNet&#45;&gt;ipconfig</title>
<path fill="none" stroke="black" d="M465.011,-431.697C453.186,-422.796 438.608,-411.823 425.821,-402.199"/>
<polygon fill="black" stroke="black" points="427.819,-399.322 417.724,-396.104 423.609,-404.915 427.819,-399.322"/>
</g>
<!-- ping -->
<g id="node30" class="node"><title>ping</title>
<polygon fill="none" stroke="black" points="460,-324 406,-324 406,-288 460,-288 460,-324"/>
<text text-anchor="middle" x="433" y="-303" font-family="Helvetica,sans-Serif" font-size="10.00">ping</text>
</g>
<!-- LookNet&#45;&gt;ping -->
<g id="edge29" class="edge"><title>LookNet&#45;&gt;ping</title>
<path fill="none" stroke="black" d="M481.366,-431.871C471.909,-407.457 454.468,-362.426 443.316,-333.635"/>
<polygon fill="black" stroke="black" points="446.533,-332.25 439.658,-324.189 440.006,-334.778 446.533,-332.25"/>
</g>
<!-- net user -->
<g id="node31" class="node"><title>net user</title>
<polygon fill="none" stroke="black" points="498,-252 444,-252 444,-216 498,-216 498,-252"/>
<text text-anchor="middle" x="471" y="-231" font-family="Helvetica,sans-Serif" font-size="10.00">net user</text>
</g>
<!-- LookNet&#45;&gt;net user -->
<g id="edge30" class="edge"><title>LookNet&#45;&gt;net user</title>
<path fill="none" stroke="black" d="M486.638,-431.849C483.697,-394.832 476.734,-307.181 473.176,-262.386"/>
<polygon fill="black" stroke="black" points="476.65,-261.924 472.369,-252.232 469.672,-262.478 476.65,-261.924"/>
</g>
<!-- net view -->
<g id="node32" class="node"><title>net view</title>
<polygon fill="none" stroke="black" points="536,-180 482,-180 482,-144 536,-144 536,-180"/>
<text text-anchor="middle" x="509" y="-159" font-family="Helvetica,sans-Serif" font-size="10.00">net view</text>
</g>
<!-- LookNet&#45;&gt;net view -->
<g id="edge31" class="edge"><title>LookNet&#45;&gt;net view</title>
<path fill="none" stroke="black" d="M491.35,-431.877C493.264,-421.527 495.562,-408.048 497,-396 505.849,-321.845 508.176,-233.646 508.786,-190.097"/>
<polygon fill="black" stroke="black" points="512.286,-190.064 508.907,-180.023 505.287,-189.98 512.286,-190.064"/>
</g>
<!-- net localgroup -->
<g id="node33" class="node"><title>net localgroup</title>
<polygon fill="none" stroke="black" points="574.322,-108 495.678,-108 495.678,-72 574.322,-72 574.322,-108"/>
<text text-anchor="middle" x="535" y="-87" font-family="Helvetica,sans-Serif" font-size="10.00">net localgroup</text>
</g>
<!-- LookNet&#45;&gt;net localgroup -->
<g id="edge32" class="edge"><title>LookNet&#45;&gt;net localgroup</title>
<path fill="none" stroke="black" d="M504.491,-431.772C526.843,-406.534 564,-357.051 564,-307 564,-307 564,-307 564,-233 564,-192.215 552.373,-146.148 543.844,-117.84"/>
<polygon fill="black" stroke="black" points="547.176,-116.769 540.869,-108.257 540.491,-118.845 547.176,-116.769"/>
</g>
<!-- netstat -->
<g id="node34" class="node"><title>netstat</title>
<polygon fill="none" stroke="black" points="629,-36 575,-36 575,-0 629,-0 629,-36"/>
<text text-anchor="middle" x="602" y="-15" font-family="Helvetica,sans-Serif" font-size="10.00">netstat</text>
</g>
<!-- LookNet&#45;&gt;netstat -->
<g id="edge33" class="edge"><title>LookNet&#45;&gt;netstat</title>
<path fill="none" stroke="black" d="M515.016,-431.964C548.728,-408.367 602,-362.325 602,-307 602,-307 602,-307 602,-161 602,-120.996 602,-74.6528 602,-46.0798"/>
<polygon fill="black" stroke="black" points="605.5,-46.0492 602,-36.0493 598.5,-46.0493 605.5,-46.0492"/>
</g>
<!-- download -->
<g id="node35" class="node"><title>download</title>
<polygon fill="none" stroke="black" points="688.313,-396 629.687,-396 629.687,-360 688.313,-360 688.313,-396"/>
<text text-anchor="middle" x="659" y="-375" font-family="Helvetica,sans-Serif" font-size="10.00">download</text>
</g>
<!-- Download&#45;&gt;download -->
<g id="edge34" class="edge"><title>Download&#45;&gt;download</title>
<path fill="none" stroke="black" d="M701.91,-431.697C695.077,-423.305 686.743,-413.07 679.244,-403.861"/>
<polygon fill="black" stroke="black" points="681.956,-401.649 672.928,-396.104 676.528,-406.069 681.956,-401.649"/>
</g>
<!-- ftp -->
<g id="node36" class="node"><title>ftp</title>
<polygon fill="none" stroke="black" points="743,-324 689,-324 689,-288 743,-288 743,-324"/>
<text text-anchor="middle" x="716" y="-303" font-family="Helvetica,sans-Serif" font-size="10.00">ftp</text>
</g>
<!-- Download&#45;&gt;ftp -->
<g id="edge35" class="edge"><title>Download&#45;&gt;ftp</title>
<path fill="none" stroke="black" d="M716,-431.871C716,-407.67 716,-363.211 716,-334.393"/>
<polygon fill="black" stroke="black" points="719.5,-334.189 716,-324.189 712.5,-334.189 719.5,-334.189"/>
</g>
<!-- upload -->
<g id="node37" class="node"><title>upload</title>
<polygon fill="none" stroke="black" points="798,-396 744,-396 744,-360 798,-360 798,-396"/>
<text text-anchor="middle" x="771" y="-375" font-family="Helvetica,sans-Serif" font-size="10.00">upload</text>
</g>
<!-- Exfil&#45;&gt;upload -->
<g id="edge36" class="edge"><title>Exfil&#45;&gt;upload</title>
<path fill="none" stroke="black" d="M789.82,-431.697C787.005,-423.813 783.609,-414.304 780.481,-405.546"/>
<polygon fill="black" stroke="black" points="783.768,-404.345 777.109,-396.104 777.176,-406.699 783.768,-404.345"/>
</g>
<!-- type -->
<g id="node38" class="node"><title>type</title>
<polygon fill="none" stroke="black" points="853,-324 799,-324 799,-288 853,-288 853,-324"/>
<text text-anchor="middle" x="826" y="-303" font-family="Helvetica,sans-Serif" font-size="10.00">type</text>
</g>
<!-- Exfil&#45;&gt;type -->
<g id="edge37" class="edge"><title>Exfil&#45;&gt;type</title>
<path fill="none" stroke="black" d="M799.619,-431.871C804.754,-407.564 814.207,-362.819 820.293,-334.013"/>
<polygon fill="black" stroke="black" points="823.726,-334.697 822.368,-324.189 816.877,-333.25 823.726,-334.697"/>
</g>
<!-- cd -->
<g id="node39" class="node"><title>cd</title>
<polygon fill="none" stroke="black" points="908,-396 854,-396 854,-360 908,-360 908,-396"/>
<text text-anchor="middle" x="881" y="-375" font-family="Helvetica,sans-Serif" font-size="10.00">cd</text>
</g>
<!-- MoveDisk&#45;&gt;cd -->
<g id="edge38" class="edge"><title>MoveDisk&#45;&gt;cd</title>
<path fill="none" stroke="black" d="M877.989,-431.697C878.43,-423.983 878.959,-414.712 879.451,-406.112"/>
<polygon fill="black" stroke="black" points="882.946,-406.288 880.023,-396.104 875.958,-405.888 882.946,-406.288"/>
</g>
<!-- net use -->
<g id="node40" class="node"><title>net use</title>
<polygon fill="none" stroke="black" points="980,-396 926,-396 926,-360 980,-360 980,-396"/>
<text text-anchor="middle" x="953" y="-375" font-family="Helvetica,sans-Serif" font-size="10.00">net use</text>
</g>
<!-- MoveNet&#45;&gt;net use -->
<g id="edge39" class="edge"><title>MoveNet&#45;&gt;net use</title>
<path fill="none" stroke="black" d="M953,-431.697C953,-423.983 953,-414.712 953,-406.112"/>
<polygon fill="black" stroke="black" points="956.5,-406.104 953,-396.104 949.5,-406.104 956.5,-406.104"/>
</g>
<!-- copy -->
<g id="node41" class="node"><title>copy</title>
<polygon fill="none" stroke="black" points="1052,-396 998,-396 998,-360 1052,-360 1052,-396"/>
<text text-anchor="middle" x="1025" y="-375" font-family="Helvetica,sans-Serif" font-size="10.00">copy</text>
</g>
<!-- ModifyDisk&#45;&gt;copy -->
<g id="edge40" class="edge"><title>ModifyDisk&#45;&gt;copy</title>
<path fill="none" stroke="black" d="M1029.52,-431.697C1028.86,-423.983 1028.06,-414.712 1027.32,-406.112"/>
<polygon fill="black" stroke="black" points="1030.81,-405.769 1026.47,-396.104 1023.83,-406.367 1030.81,-405.769"/>
</g>
<!-- ren -->
<g id="node42" class="node"><title>ren</title>
<polygon fill="none" stroke="black" points="1099,-324 1045,-324 1045,-288 1099,-288 1099,-324"/>
<text text-anchor="middle" x="1072" y="-303" font-family="Helvetica,sans-Serif" font-size="10.00">ren</text>
</g>
<!-- ModifyDisk&#45;&gt;ren -->
<g id="edge41" class="edge"><title>ModifyDisk&#45;&gt;ren</title>
<path fill="none" stroke="black" d="M1043.12,-431.665C1049.49,-421.687 1056.82,-408.65 1061,-396 1067.62,-375.951 1070.32,-352.166 1071.38,-334.231"/>
<polygon fill="black" stroke="black" points="1074.88,-334.314 1071.85,-324.162 1067.89,-333.989 1074.88,-334.314"/>
</g>
<!-- move -->
<g id="node43" class="node"><title>move</title>
<polygon fill="none" stroke="black" points="1154,-252 1100,-252 1100,-216 1154,-216 1154,-252"/>
<text text-anchor="middle" x="1127" y="-231" font-family="Helvetica,sans-Serif" font-size="10.00">move</text>
</g>
<!-- ModifyDisk&#45;&gt;move -->
<g id="edge42" class="edge"><title>ModifyDisk&#45;&gt;move</title>
<path fill="none" stroke="black" d="M1049.61,-431.665C1059.31,-421.89 1070.83,-409.047 1079,-396 1105.54,-353.617 1118.06,-295.792 1123.43,-262.218"/>
<polygon fill="black" stroke="black" points="1126.91,-262.629 1124.94,-252.22 1119.99,-261.588 1126.91,-262.629"/>
</g>
<!-- ipcfg -->
<g id="node44" class="node"><title>ipcfg</title>
<polygon fill="none" stroke="black" points="1209,-396 1155,-396 1155,-360 1209,-360 1209,-396"/>
<text text-anchor="middle" x="1182" y="-375" font-family="Helvetica,sans-Serif" font-size="10.00">ipcfg</text>
</g>
<!-- ModifyNet&#45;&gt;ipcfg -->
<g id="edge43" class="edge"><title>ModifyNet&#45;&gt;ipcfg</title>
<path fill="none" stroke="black" d="M1129.3,-431.697C1137.86,-423.135 1148.34,-412.656 1157.7,-403.304"/>
<polygon fill="black" stroke="black" points="1160.3,-405.65 1164.9,-396.104 1155.35,-400.701 1160.3,-405.65"/>
</g>
</g>
</svg>
