<?xml version="1.0" encoding="UTF-8" standalone="no"?>
<!-- Generated by graphviz version 2.38.0 (20140413.2041)
 -->

<!-- Title: Ontology Pages: 1 -->

<svg
   xmlns:dc="http://purl.org/dc/elements/1.1/"
   xmlns:cc="http://creativecommons.org/ns#"
   xmlns:rdf="http://www.w3.org/1999/02/22-rdf-syntax-ns#"
   xmlns:svg="http://www.w3.org/2000/svg"
   xmlns="http://www.w3.org/2000/svg"
   xmlns:sodipodi="http://sodipodi.sourceforge.net/DTD/sodipodi-0.dtd"
   xmlns:inkscape="http://www.inkscape.org/namespaces/inkscape"
   width="190.77023pt"
   height="165.6682pt"
   viewBox="0 0 191.40614 165.6682"
   id="svg2"
   version="1.1"
   inkscape:version="0.91 r13725"
   sodipodi:docname="ontology.svg"
   inkscape:export-filename="/home/afishe/git/linkshop/ontology/v2/forwardAndSelf.png"
   inkscape:export-xdpi="90"
   inkscape:export-ydpi="90">
  <metadata
     id="metadata139">
    <rdf:RDF>
      <cc:Work
         rdf:about="">
        <dc:format>image/svg+xml</dc:format>
        <dc:type
           rdf:resource="http://purl.org/dc/dcmitype/StillImage" />
        <dc:title />
      </cc:Work>
    </rdf:RDF>
  </metadata>
  <defs
     id="defs137">
    <marker
       inkscape:stockid="Arrow2Lstart"
       orient="auto"
       refY="0"
       refX="0"
       id="Arrow2Lstart"
       style="overflow:visible"
       inkscape:isstock="true">
      <path
         id="path4220"
         style="fill:#000000;fill-opacity:1;fill-rule:evenodd;stroke:#000000;stroke-width:0.625;stroke-linejoin:round;stroke-opacity:1"
         d="M 8.7185878,4.0337352 -2.2072895,0.01601326 8.7185884,-4.0017078 c -1.7454984,2.3720609 -1.7354408,5.6174519 -6e-7,8.035443 z"
         transform="matrix(1.1,0,0,1.1,1.1,0)"
         inkscape:connector-curvature="0" />
    </marker>
    <marker
       inkscape:stockid="TriangleOutL"
       orient="auto"
       refY="0"
       refX="0"
       id="TriangleOutL"
       style="overflow:visible"
       inkscape:isstock="true">
      <path
         id="path4344"
         d="m 5.77,0 -8.65,5 0,-10 8.65,5 z"
         style="fill:#000000;fill-opacity:1;fill-rule:evenodd;stroke:#000000;stroke-width:1pt;stroke-opacity:1"
         transform="scale(0.8,0.8)"
         inkscape:connector-curvature="0" />
    </marker>
    <marker
       inkscape:stockid="Arrow2Lstart"
       orient="auto"
       refY="0"
       refX="0"
       id="Arrow2Lstart-9"
       style="overflow:visible"
       inkscape:isstock="true">
      <path
         inkscape:connector-curvature="0"
         id="path4220-8"
         style="fill:#000000;fill-opacity:1;fill-rule:evenodd;stroke:#000000;stroke-width:0.625;stroke-linejoin:round;stroke-opacity:1"
         d="M 8.7185878,4.0337352 -2.2072895,0.01601326 8.7185884,-4.0017078 c -1.7454984,2.3720609 -1.7354408,5.6174519 -6e-7,8.035443 z"
         transform="matrix(1.1,0,0,1.1,1.1,0)" />
    </marker>
    <marker
       inkscape:stockid="Arrow2Lstart"
       orient="auto"
       refY="0"
       refX="0"
       id="Arrow2Lstart-9-2"
       style="overflow:visible"
       inkscape:isstock="true">
      <path
         inkscape:connector-curvature="0"
         id="path4220-8-0"
         style="fill:#000000;fill-opacity:1;fill-rule:evenodd;stroke:#000000;stroke-width:0.625;stroke-linejoin:round;stroke-opacity:1"
         d="M 8.7185878,4.0337352 -2.2072895,0.01601326 8.7185884,-4.0017078 c -1.7454984,2.3720609 -1.7354408,5.6174519 -6e-7,8.035443 z"
         transform="matrix(1.1,0,0,1.1,1.1,0)" />
    </marker>
    <marker
       inkscape:stockid="Arrow2Lstart"
       orient="auto"
       refY="0"
       refX="0"
       id="Arrow2Lstart-9-6"
       style="overflow:visible"
       inkscape:isstock="true">
      <path
         inkscape:connector-curvature="0"
         id="path4220-8-5"
         style="fill:#000000;fill-opacity:1;fill-rule:evenodd;stroke:#000000;stroke-width:0.625;stroke-linejoin:round;stroke-opacity:1"
         d="M 8.7185878,4.0337352 -2.2072895,0.01601326 8.7185884,-4.0017078 c -1.7454984,2.3720609 -1.7354408,5.6174519 -6e-7,8.035443 z"
         transform="matrix(1.1,0,0,1.1,1.1,0)" />
    </marker>
    <marker
       inkscape:stockid="Arrow2Lstart"
       orient="auto"
       refY="0"
       refX="0"
       id="Arrow2Lstart-9-9"
       style="overflow:visible"
       inkscape:isstock="true">
      <path
         inkscape:connector-curvature="0"
         id="path4220-8-7"
         style="fill:#000000;fill-opacity:1;fill-rule:evenodd;stroke:#000000;stroke-width:0.625;stroke-linejoin:round;stroke-opacity:1"
         d="M 8.7185878,4.0337352 -2.2072895,0.01601326 8.7185884,-4.0017078 c -1.7454984,2.3720609 -1.7354408,5.6174519 -6e-7,8.035443 z"
         transform="matrix(1.1,0,0,1.1,1.1,0)" />
    </marker>
    <marker
       inkscape:stockid="Arrow2Lstart"
       orient="auto"
       refY="0"
       refX="0"
       id="Arrow2Lstart-9-9-5"
       style="overflow:visible"
       inkscape:isstock="true">
      <path
         inkscape:connector-curvature="0"
         id="path4220-8-7-5"
         style="fill:#000000;fill-opacity:1;fill-rule:evenodd;stroke:#000000;stroke-width:0.625;stroke-linejoin:round;stroke-opacity:1"
         d="M 8.7185878,4.0337352 -2.2072895,0.01601326 8.7185884,-4.0017078 c -1.7454984,2.3720609 -1.7354408,5.6174519 -6e-7,8.035443 z"
         transform="matrix(1.1,0,0,1.1,1.1,0)" />
    </marker>
    <marker
       inkscape:stockid="Arrow2Lstart"
       orient="auto"
       refY="0"
       refX="0"
       id="Arrow2Lstart-9-9-5-1"
       style="overflow:visible"
       inkscape:isstock="true">
      <path
         inkscape:connector-curvature="0"
         id="path4220-8-7-5-5"
         style="fill:#000000;fill-opacity:1;fill-rule:evenodd;stroke:#000000;stroke-width:0.625;stroke-linejoin:round;stroke-opacity:1"
         d="M 8.7185878,4.0337352 -2.2072895,0.01601326 8.7185884,-4.0017078 c -1.7454984,2.3720609 -1.7354408,5.6174519 -6e-7,8.035443 z"
         transform="matrix(1.1,0,0,1.1,1.1,0)" />
    </marker>
  </defs>
  <sodipodi:namedview
     pagecolor="#ffffff"
     bordercolor="#666666"
     borderopacity="1"
     objecttolerance="10"
     gridtolerance="10"
     guidetolerance="10"
     inkscape:pageopacity="0"
     inkscape:pageshadow="2"
     inkscape:window-width="1920"
     inkscape:window-height="894"
     id="namedview135"
     showgrid="false"
     inkscape:zoom="2.6435992"
     inkscape:cx="88.589979"
     inkscape:cy="103.16481"
     inkscape:window-x="0"
     inkscape:window-y="27"
     inkscape:window-maximized="1"
     inkscape:current-layer="svg2"
     fit-margin-top="0"
     fit-margin-left="0"
     fit-margin-right="0"
     fit-margin-bottom="0" />
  <polygon
     points="16.454,-360 70.454,-360 70.454,-396 70.454,-396 16.454,-396 "
     id="polygon12"
     style="fill:none;stroke:#000000"
     transform="translate(1.4691927,396.22139)" />
  <text
     x="44.923191"
     y="21.221388"
     font-size="10.00"
     id="text14"
     style="font-size:10px;font-family:Helvetica, sans-Serif;text-anchor:middle;fill:#88aa00">Access</text>
  <g
     class="node"
     id="node2"
     transform="translate(103.62801,324.22139)">
    <title
       id="title17">Look</title>
    <ellipse
       style="fill:none;stroke:#000000"
       id="ellipse19"
       ry="18"
       rx="27"
       cy="-306"
       cx="43.453999" />
    <text
       style="font-size:10px;font-family:Helvetica, sans-Serif;text-anchor:middle;fill:#0000ff"
       id="text21"
       font-size="10.00"
       y="-303"
       x="43.453999">Look</text>
  </g>
  <path
     sodipodi:nodetypes="cc"
     d="m 72.315391,17.975716 40.382319,0.0804"
     id="path26"
     inkscape:connector-curvature="0"
     style="fill:none;stroke:#000000" />
  <polygon
     points="46.9541,-334.104 46.9541,-334.104 43.454,-324.104 39.9541,-334.104 "
     id="polygon28"
     style="fill:#000000;stroke:#000000"
     transform="matrix(-0.00606963,-0.99998158,0.99998158,-0.00606963,443.80568,59.389426)" />
  <g
     class="node"
     id="node3"
     transform="translate(1.4691937,316.07492)">
    <title
       id="title31">Transfer</title>
    <ellipse
       style="fill:none;stroke:#000000"
       id="ellipse33"
       ry="18"
       rx="30.543501"
       cy="-234"
       cx="43.453999" />
    <text
       style="font-size:10px;font-family:Helvetica, sans-Serif;text-anchor:middle;fill:#0000ff"
       id="text35"
       font-size="10.00"
       y="-231"
       x="43.453999">Transfer</text>
  </g>
  <g
     class="node"
     id="node4"
     transform="translate(46.628008,244.07492)">
    <title
       id="title45">Move</title>
    <ellipse
       style="fill:none;stroke:#000000"
       id="ellipse47"
       ry="18"
       rx="27"
       cy="-162"
       cx="100.454" />
    <text
       style="font-size:10px;font-family:Helvetica, sans-Serif;text-anchor:middle;fill:#0000ff"
       id="text49"
       font-size="10.00"
       y="-159"
       x="100.454">Move</text>
  </g>
  <g
     class="node"
     id="node5"
     transform="translate(-20.530809,235.92845)">
    <title
       id="title59">Execute</title>
    <ellipse
       style="fill:none;stroke:#000000"
       id="ellipse61"
       ry="18"
       rx="30.198099"
       cy="-90"
       cx="65.454002" />
    <text
       style="font-size:10px;font-family:Helvetica, sans-Serif;text-anchor:middle;fill:#0000ff"
       id="text63"
       font-size="10.00"
       y="-87"
       x="65.454002">Execute</text>
  </g>
  <g
     class="node"
     id="node6"
     transform="translate(81.628008,163.92845)">
    <title
       id="title87">Cleanup</title>
    <ellipse
       style="fill:none;stroke:#000000"
       id="ellipse89"
       ry="18"
       rx="30.9909"
       cy="-18"
       cx="65.454002" />
    <text
       style="font-size:10px;font-family:Helvetica, sans-Serif;text-anchor:middle;fill:#0000ff"
       id="text91"
       font-size="10.00"
       y="-15"
       x="65.454002">Cleanup</text>
  </g>
  <polygon
     points="46.9541,-334.104 46.9541,-334.104 43.454,-324.104 39.9541,-334.104 "
     id="polygon28-5"
     style="fill:#000000;stroke:#000000"
     transform="translate(104.24737,387.67893)" />
  <path
     style="fill:none;fill-rule:evenodd;stroke:#000000;stroke-width:0.80266666px;stroke-linecap:butt;stroke-linejoin:miter;stroke-opacity:1"
     d="M 123.53999,28.924859 68.279974,69.610806"
     id="path4368"
     inkscape:connector-curvature="0" />
  <path
     style="fill:none;fill-rule:evenodd;stroke:#000000;stroke-width:0.80266666px;stroke-linecap:butt;stroke-linejoin:miter;stroke-opacity:1"
     d="M 132.64878,33.479254 65.243709,132.15785"
     id="path4370"
     inkscape:connector-curvature="0"
     sodipodi:nodetypes="cc" />
  <path
     style="fill:none;fill-rule:evenodd;stroke:#000000;stroke-width:0.80266666px;stroke-linecap:butt;stroke-linejoin:miter;stroke-opacity:1"
     d="m 147.52647,35.604643 c 0,25.808243 0,27.630003 0,27.630003 l 0.91088,0 0,0"
     id="path4372"
     inkscape:connector-curvature="0" />
  <path
     style="fill:none;fill-rule:evenodd;stroke:#000000;stroke-width:0.80266666px;stroke-linecap:butt;stroke-linejoin:miter;stroke-opacity:1"
     d="m 76.781515,75.986956 c 44.329465,-0.30362 44.936715,-0.30362 44.936715,-0.30362 l 0,0"
     id="path4374"
     inkscape:connector-curvature="0" />
  <path
     style="fill:none;fill-rule:evenodd;stroke:#000000;stroke-width:0.80266666px;stroke-linecap:butt;stroke-linejoin:miter;stroke-opacity:1"
     d="M 65.243709,95.115426 119.59284,136.71225"
     id="path4376"
     inkscape:connector-curvature="0" />
  <path
     style="fill:none;fill-rule:evenodd;stroke:#000000;stroke-width:0.80266666px;stroke-linecap:butt;stroke-linejoin:miter;stroke-opacity:1"
     d="m 147.8301,99.973455 c 0.30362,27.022755 0.30362,27.022755 0.30362,27.022755 l 0,0"
     id="path4378"
     inkscape:connector-curvature="0" />
  <path
     style="fill:none;fill-rule:evenodd;stroke:#000000;stroke-width:0.80266666px;stroke-linecap:butt;stroke-linejoin:miter;stroke-opacity:1"
     d="m 72.532119,89.498336 c 44.329461,-0.30362 44.936711,-0.30362 44.936711,-0.30362 l 0,0"
     id="path4374-7"
     inkscape:connector-curvature="0" />
  <path
     style="fill:none;fill-rule:evenodd;stroke:#000000;stroke-width:0.80266666px;stroke-linecap:butt;stroke-linejoin:miter;stroke-opacity:1"
     d="M 74.048876,140.35576 126.57625,95.115416"
     id="path4404"
     inkscape:connector-curvature="0"
     sodipodi:nodetypes="cc" />
  <path
     style="fill:none;fill-rule:evenodd;stroke:#000000;stroke-width:0.80266666px;stroke-linecap:butt;stroke-linejoin:miter;stroke-opacity:1"
     d="M 136.59592,99.062575 78.9069,144.91016"
     id="path4406"
     inkscape:connector-curvature="0"
     sodipodi:nodetypes="cc" />
  <polygon
     points="46.9541,-334.104 43.454,-324.104 39.9541,-334.104 46.9541,-334.104 "
     id="polygon28-5-1"
     style="fill:#000000;stroke:#000000"
     transform="matrix(0.57505692,0.81811341,-0.81811341,0.57505692,-221.89187,220.14651)" />
  <polygon
     points="43.454,-324.104 39.9541,-334.104 46.9541,-334.104 46.9541,-334.104 "
     id="polygon28-5-17"
     style="fill:#000000;stroke:#000000"
     transform="matrix(0.79041151,0.61257624,-0.61257624,0.79041151,-167.72259,360.944)" />
  <polygon
     points="46.9541,-334.104 46.9541,-334.104 43.454,-324.104 39.9541,-334.104 "
     id="polygon28-5-6"
     style="fill:#000000;stroke:#000000"
     transform="matrix(-0.69289945,-0.72103421,0.72103421,-0.69289945,390.39967,-98.306719)" />
  <polygon
     points="46.9541,-334.104 46.9541,-334.104 43.454,-324.104 39.9541,-334.104 "
     id="polygon28-5-0"
     style="fill:#000000;stroke:#000000"
     transform="matrix(0.58751512,-0.80921319,0.80921319,0.58751512,355.38656,361.28281)" />
  <polygon
     points="43.454,-324.104 39.9541,-334.104 46.9541,-334.104 46.9541,-334.104 "
     id="polygon28-5-02"
     style="fill:#000000;stroke:#000000"
     transform="matrix(-0.01867492,-0.99982561,0.99982561,-0.01867492,446.51198,126.17793)" />
  <polygon
     points="43.454,-324.104 39.9541,-334.104 46.9541,-334.104 46.9541,-334.104 "
     id="polygon28-5-4"
     style="fill:#000000;stroke:#000000"
     transform="matrix(-0.02025662,0.99979481,-0.99979481,-0.02025662,-248.4426,25.756846)" />
  <polygon
     points="43.454,-324.104 39.9541,-334.104 46.9541,-334.104 46.9541,-334.104 "
     id="polygon28-5-5"
     style="fill:#000000;stroke:#000000"
     transform="translate(104.551,451.03903)" />
  <polygon
     points="43.454,-324.104 39.9541,-334.104 46.9541,-334.104 46.9541,-334.104 "
     id="polygon28-5-3"
     style="fill:#000000;stroke:#000000"
     transform="matrix(0.65001687,0.75991978,-0.75991978,0.65001687,-197.71828,324.40075)" />
  <polygon
     points="39.9541,-334.104 46.9541,-334.104 46.9541,-334.104 43.454,-324.104 "
     id="polygon28-5-16"
     style="fill:#000000;stroke:#000000"
     transform="translate(1.1033157,450.34018)" />
  <path
     style="fill:none;fill-rule:evenodd;stroke:#000000;stroke-width:0.80266666px;stroke-linecap:butt;stroke-linejoin:miter;stroke-opacity:1"
     d="m 44.597108,100.41286 c 0,25.80824 0,27.63 0,27.63 l 0.91088,0 0,0"
     id="path4372-8"
     inkscape:connector-curvature="0" />
  <path
     style="fill:none;fill-rule:evenodd;stroke:#000000;stroke-width:0.80266666px;stroke-linecap:butt;stroke-linejoin:miter;stroke-opacity:1"
     d="M 73.630542,150.42442 C 117.96,150.1208 110.06571,150.1208 110.06571,150.1208"
     id="path4374-7-3"
     inkscape:connector-curvature="0"
     sodipodi:nodetypes="cc" />
  <polygon
     points="43.454,-324.104 39.9541,-334.104 46.9541,-334.104 46.9541,-334.104 "
     id="polygon28-5-02-0"
     style="fill:#000000;stroke:#000000"
     transform="matrix(-0.01867492,-0.99982564,0.99982564,-0.01867492,441.53787,187.71126)" />
  <path
     style="fill:none;fill-opacity:1;stroke:#000000;stroke-width:0.80268961;stroke-linecap:butt;stroke-miterlimit:4;stroke-dasharray:none;stroke-dashoffset:0;stroke-opacity:1;marker-start:url(#Arrow2Lstart-9)"
     id="path3388-5"
     sodipodi:type="arc"
     sodipodi:cx="82.699905"
     sodipodi:cy="-16.963575"
     sodipodi:rx="13.739709"
     sodipodi:ry="14.813845"
     sodipodi:start="5.7997212"
     sodipodi:end="3.5039017"
     d="M 94.864906,-23.849777 A 13.739709,14.813845 0 0 1 91.812618,-5.8767818 13.739709,14.813845 0 0 1 74.896772,-4.7705982 13.739709,14.813845 0 0 1 69.852166,-22.21411"
     transform="matrix(-0.0152418,0.99988384,-0.99998959,-0.00456193,0,0)"
     sodipodi:open="true" />
  <path
     style="fill:none;fill-opacity:1;stroke:#000000;stroke-width:0.80268961;stroke-linecap:butt;stroke-miterlimit:4;stroke-dasharray:none;stroke-dashoffset:0;stroke-opacity:1;marker-start:url(#Arrow2Lstart-9-2)"
     id="path3388-5-5"
     sodipodi:type="arc"
     sodipodi:cx="146.49823"
     sodipodi:cy="-18.667185"
     sodipodi:rx="13.739709"
     sodipodi:ry="14.813845"
     sodipodi:start="5.7997212"
     sodipodi:end="3.5039017"
     d="M 158.66323,-25.553386 A 13.739709,14.813845 0 0 1 155.61094,-7.5803913 13.739709,14.813845 0 0 1 138.6951,-6.4742077 13.739709,14.813845 0 0 1 133.65049,-23.91772"
     transform="matrix(-0.0152418,0.99988384,-0.99998959,-0.00456193,0,0)"
     sodipodi:open="true" />
  <path
     style="fill:none;fill-opacity:1;stroke:#000000;stroke-width:0.80268961;stroke-linecap:butt;stroke-miterlimit:4;stroke-dasharray:none;stroke-dashoffset:0;stroke-opacity:1;marker-start:url(#Arrow2Lstart-9-9)"
     id="path3388-5-3"
     sodipodi:type="arc"
     sodipodi:cx="19.834108"
     sodipodi:cy="172.85768"
     sodipodi:rx="13.739709"
     sodipodi:ry="14.813845"
     sodipodi:start="5.7997212"
     sodipodi:end="3.5039017"
     d="m 31.999109,165.97148 a 13.739709,14.813845 0 0 1 -3.052288,17.97299 13.739709,14.813845 0 0 1 -16.915846,1.10619 13.739709,14.813845 0 0 1 -5.0446062,-17.44351"
     transform="matrix(0.0152418,0.99988384,0.99998959,-0.00456193,0,0)"
     sodipodi:open="true" />
  <path
     style="fill:none;fill-opacity:1;stroke:#000000;stroke-width:0.80268961;stroke-linecap:butt;stroke-miterlimit:4;stroke-dasharray:none;stroke-dashoffset:0;stroke-opacity:1;marker-start:url(#Arrow2Lstart-9-9-5)"
     id="path3388-5-3-6"
     sodipodi:type="arc"
     sodipodi:cx="83.899513"
     sodipodi:cy="171.27394"
     sodipodi:rx="13.739709"
     sodipodi:ry="14.813845"
     sodipodi:start="5.7997212"
     sodipodi:end="3.5039017"
     d="m 96.064513,164.38774 a 13.739709,14.813845 0 0 1 -3.052288,17.97299 13.739709,14.813845 0 0 1 -16.915845,1.10619 13.739709,14.813845 0 0 1 -5.044606,-17.44351"
     transform="matrix(0.0152418,0.99988384,0.99998959,-0.00456193,0,0)"
     sodipodi:open="true" />
  <path
     style="fill:none;fill-opacity:1;stroke:#000000;stroke-width:0.80268961;stroke-linecap:butt;stroke-miterlimit:4;stroke-dasharray:none;stroke-dashoffset:0;stroke-opacity:1;marker-start:url(#Arrow2Lstart-9-9-5-1)"
     id="path3388-5-3-6-3"
     sodipodi:type="arc"
     sodipodi:cx="147.37703"
     sodipodi:cy="173.94998"
     sodipodi:rx="13.739709"
     sodipodi:ry="14.813845"
     sodipodi:start="5.7997212"
     sodipodi:end="3.5039017"
     d="m 159.54203,167.06378 a 13.739709,14.813845 0 0 1 -3.05229,17.973 13.739709,14.813845 0 0 1 -16.91584,1.10618 13.739709,14.813845 0 0 1 -5.04461,-17.44351"
     transform="matrix(0.0152418,0.99988384,0.99998959,-0.00456193,0,0)"
     sodipodi:open="true" />
</svg>
