<?xml version="1.0" encoding="UTF-8" standalone="no"?>
<!DOCTYPE svg PUBLIC "-//W3C//DTD SVG 1.1//EN"
 "http://www.w3.org/Graphics/SVG/1.1/DTD/svg11.dtd">
<!-- Generated by graphviz version 2.38.0 (20140413.2041)
 -->
<!-- Title: Ontology Pages: 1 -->
<svg width="258pt" height="332pt"
 viewBox="0.00 0.00 257.74 332.00" xmlns="http://www.w3.org/2000/svg" xmlns:xlink="http://www.w3.org/1999/xlink">
<g id="graph0" class="graph" transform="scale(1 1) rotate(0) translate(4 328)">
<title>Ontology</title>
<polygon fill="white" stroke="none" points="-4,4 -4,-328 253.744,-328 253.744,4 -4,4"/>
<!-- Access -->
<g id="node1" class="node"><title>Access</title>
<polygon fill="none" stroke="black" points="231.744,-324 177.744,-324 177.744,-288 231.744,-288 231.744,-324"/>
<text text-anchor="middle" x="204.744" y="-303" font-family="Helvetica,sans-Serif" font-size="10.00" fill="red">Access</text>
</g>
<!-- Look -->
<g id="node2" class="node"><title>Look</title>
<ellipse fill="none" stroke="black" cx="204.744" cy="-234" rx="27" ry="18"/>
<text text-anchor="middle" x="204.744" y="-231" font-family="Helvetica,sans-Serif" font-size="10.00" fill="blue">Look</text>
</g>
<!-- Access&#45;&gt;Look -->
<g id="edge1" class="edge"><title>Access&#45;&gt;Look</title>
<path fill="none" stroke="black" d="M204.744,-287.697C204.744,-279.983 204.744,-270.712 204.744,-262.112"/>
<polygon fill="black" stroke="black" points="208.245,-262.104 204.744,-252.104 201.245,-262.104 208.245,-262.104"/>
</g>
<!-- Look&#45;&gt;Look -->
<g id="edge2" class="edge"><title>Look&#45;&gt;Look</title>
<path fill="none" stroke="black" d="M224.64,-246.432C237.432,-249.675 249.744,-245.531 249.744,-234 249.744,-225.622 243.245,-221.143 234.784,-220.564"/>
<polygon fill="black" stroke="black" points="234.246,-217.1 224.64,-221.568 234.935,-224.066 234.246,-217.1"/>
</g>
<!-- Transfer -->
<g id="node3" class="node"><title>Transfer</title>
<ellipse fill="none" stroke="black" cx="118.744" cy="-162" rx="30.5435" ry="18"/>
<text text-anchor="middle" x="118.744" y="-159" font-family="Helvetica,sans-Serif" font-size="10.00" fill="blue">Transfer</text>
</g>
<!-- Look&#45;&gt;Transfer -->
<g id="edge3" class="edge"><title>Look&#45;&gt;Transfer</title>
<path fill="none" stroke="black" d="M188.163,-219.503C175.596,-209.274 158.114,-195.045 143.838,-183.425"/>
<polygon fill="black" stroke="black" points="145.829,-180.533 135.864,-176.934 141.41,-185.962 145.829,-180.533"/>
</g>
<!-- Move -->
<g id="node4" class="node"><title>Move</title>
<ellipse fill="none" stroke="black" cx="148.744" cy="-18" rx="27" ry="18"/>
<text text-anchor="middle" x="148.744" y="-15" font-family="Helvetica,sans-Serif" font-size="10.00" fill="blue">Move</text>
</g>
<!-- Look&#45;&gt;Move -->
<g id="edge4" class="edge"><title>Look&#45;&gt;Move</title>
<path fill="none" stroke="black" d="M196.635,-216.563C183.42,-179.867 159.871,-90.9684 151.144,-46.0032"/>
<polygon fill="black" stroke="black" points="154.574,-45.2995 149.344,-36.0854 147.686,-46.5497 154.574,-45.2995"/>
</g>
<!-- Transfer&#45;&gt;Transfer -->
<g id="edge5" class="edge"><title>Transfer&#45;&gt;Transfer</title>
<path fill="none" stroke="black" d="M140.701,-174.547C154.312,-177.573 167.266,-173.391 167.266,-162 167.266,-153.546 160.131,-149.063 150.887,-148.55"/>
<polygon fill="black" stroke="black" points="150.353,-145.083 140.701,-149.453 150.971,-152.056 150.353,-145.083"/>
</g>
<!-- Transfer&#45;&gt;Move -->
<g id="edge6" class="edge"><title>Transfer&#45;&gt;Move</title>
<path fill="none" stroke="black" d="M117.779,-143.871C120.372,-119.301 129.714,-73.8488 137.867,-45.0846"/>
<polygon fill="black" stroke="black" points="141.277,-45.8961 140.802,-35.3119 134.573,-43.8825 141.277,-45.8961"/>
</g>
<!-- Execute -->
<g id="node5" class="node"><title>Execute</title>
<ellipse fill="none" stroke="black" cx="63.7445" cy="-90" rx="30.1981" ry="18"/>
<text text-anchor="middle" x="63.7445" y="-87" font-family="Helvetica,sans-Serif" font-size="10.00" fill="blue">Execute</text>
</g>
<!-- Transfer&#45;&gt;Execute -->
<g id="edge7" class="edge"><title>Transfer&#45;&gt;Execute</title>
<path fill="none" stroke="black" d="M106.538,-145.465C99.4175,-136.402 90.291,-124.786 82.2967,-114.612"/>
<polygon fill="black" stroke="black" points="84.847,-112.193 75.9166,-106.492 79.3428,-116.517 84.847,-112.193"/>
</g>
<!-- Cleanup -->
<g id="node6" class="node"><title>Cleanup</title>
<ellipse fill="none" stroke="black" cx="30.7445" cy="-18" rx="30.9909" ry="18"/>
<text text-anchor="middle" x="30.7445" y="-15" font-family="Helvetica,sans-Serif" font-size="10.00" fill="blue">Cleanup</text>
</g>
<!-- Transfer&#45;&gt;Cleanup -->
<g id="edge8" class="edge"><title>Transfer&#45;&gt;Cleanup</title>
<path fill="none" stroke="black" d="M91.4777,-153.894C69.154,-146.477 39.0139,-132.427 24.7445,-108 13.7375,-89.158 16.6651,-64.0947 21.5223,-45.367"/>
<polygon fill="black" stroke="black" points="24.9034,-46.2743 24.343,-35.6943 18.1833,-44.3145 24.9034,-46.2743"/>
</g>
<!-- Move&#45;&gt;Look -->
<g id="edge9" class="edge"><title>Move&#45;&gt;Look</title>
<path fill="none" stroke="black" d="M156.822,-35.3479C170.022,-71.9674 193.582,-160.888 202.329,-205.916"/>
<polygon fill="black" stroke="black" points="198.902,-206.636 204.134,-215.849 205.79,-205.385 198.902,-206.636"/>
</g>
<!-- Move&#45;&gt;Transfer -->
<g id="edge10" class="edge"><title>Move&#45;&gt;Transfer</title>
<path fill="none" stroke="black" d="M149.687,-36.3465C147.069,-60.8978 137.803,-105.981 129.691,-134.672"/>
<polygon fill="black" stroke="black" points="126.284,-133.849 126.769,-144.433 132.99,-135.857 126.284,-133.849"/>
</g>
<!-- Move&#45;&gt;Move -->
<g id="edge11" class="edge"><title>Move&#45;&gt;Move</title>
<path fill="none" stroke="black" d="M168.64,-30.4321C181.432,-33.6753 193.744,-29.5312 193.744,-18 193.744,-9.62183 187.245,-5.14331 178.784,-4.56444"/>
<polygon fill="black" stroke="black" points="178.246,-1.10045 168.64,-5.56787 178.935,-8.06645 178.246,-1.10045"/>
</g>
<!-- Execute&#45;&gt;Move -->
<g id="edge12" class="edge"><title>Execute&#45;&gt;Move</title>
<path fill="none" stroke="black" d="M80.9455,-74.8345C93.5165,-64.4819 110.73,-50.3057 124.667,-38.8284"/>
<polygon fill="black" stroke="black" points="126.94,-41.4909 132.434,-32.432 122.49,-36.0873 126.94,-41.4909"/>
</g>
<!-- Execute&#45;&gt;Execute -->
<g id="edge13" class="edge"><title>Execute&#45;&gt;Execute</title>
<path fill="none" stroke="black" d="M85.5096,-102.547C99.0025,-105.573 111.843,-101.391 111.843,-90 111.843,-81.546 104.77,-77.0626 95.6066,-76.5497"/>
<polygon fill="black" stroke="black" points="95.1581,-73.0757 85.5096,-77.4525 95.7816,-80.0479 95.1581,-73.0757"/>
</g>
<!-- Execute&#45;&gt;Cleanup -->
<g id="edge14" class="edge"><title>Execute&#45;&gt;Cleanup</title>
<path fill="none" stroke="black" d="M55.9239,-72.411C52.0197,-64.1292 47.2091,-53.9249 42.8423,-44.662"/>
<polygon fill="black" stroke="black" points="45.939,-43.0227 38.5089,-35.4699 39.6073,-46.0077 45.939,-43.0227"/>
</g>
<!-- Cleanup&#45;&gt;Cleanup -->
<g id="edge15" class="edge"><title>Cleanup&#45;&gt;Cleanup</title>
<path fill="none" stroke="black" d="M52.8017,-30.5475C66.4757,-33.5731 79.4889,-29.3906 79.4889,-18 79.4889,-9.54602 72.3207,-5.06258 63.0343,-4.54969"/>
<polygon fill="black" stroke="black" points="62.4554,-1.08708 52.8017,-5.45251 63.0706,-8.05999 62.4554,-1.08708"/>
</g>
</g>
</svg>
