<?xml version="1.0" encoding="UTF-8" standalone="no"?>
<!DOCTYPE svg PUBLIC "-//W3C//DTD SVG 1.1//EN"
 "http://www.w3.org/Graphics/SVG/1.1/DTD/svg11.dtd">
<!-- Generated by graphviz version 2.38.0 (20140413.2041)
 -->
<!-- Title: CommandAbstraction Pages: 1 -->
<svg width="576pt" height="274pt"
 viewBox="0.00 0.00 576.00 273.76" xmlns="http://www.w3.org/2000/svg" xmlns:xlink="http://www.w3.org/1999/xlink">
<g id="graph0" class="graph" transform="scale(0.499566 0.499566) rotate(0) translate(4 544)">
<title>CommandAbstraction</title>
<polygon fill="white" stroke="none" points="-4,4 -4,-544 1149,-544 1149,4 -4,4"/>
<!-- Command -->
<g id="node1" class="node"><title>Command</title>
<ellipse fill="none" stroke="black" cx="738" cy="-522" rx="44.6601" ry="18"/>
<text text-anchor="middle" x="738" y="-519.299" font-family="ArialMT" font-size="12.00" fill="red">Command</text>
</g>
<!-- LookAround -->
<g id="node2" class="node"><title>LookAround</title>
<polygon fill="none" stroke="black" points="187.217,-468 106.783,-468 106.783,-432 187.217,-432 187.217,-468"/>
<text text-anchor="middle" x="147" y="-447.299" font-family="ArialMT" font-size="12.00" fill="blue">LookAround</text>
</g>
<!-- Command&#45;&gt;LookAround -->
<g id="edge1" class="edge"><title>Command&#45;&gt;LookAround</title>
<path fill="none" stroke="black" stroke-dasharray="5,2" d="M695.497,-515.966C589.241,-503.38 312.383,-470.588 197.796,-457.016"/>
<polygon fill="black" stroke="black" points="197.891,-453.503 187.549,-455.803 197.068,-460.455 197.891,-453.503"/>
</g>
<!-- LANet -->
<g id="node3" class="node"><title>LANet</title>
<polygon fill="none" stroke="black" points="426,-468 372,-468 372,-432 426,-432 426,-468"/>
<text text-anchor="middle" x="399" y="-447.299" font-family="ArialMT" font-size="12.00" fill="blue">LANet</text>
</g>
<!-- Command&#45;&gt;LANet -->
<g id="edge2" class="edge"><title>Command&#45;&gt;LANet</title>
<path fill="none" stroke="black" stroke-dasharray="5,2" d="M699.112,-512.97C633.38,-499.397 501.151,-472.093 436.422,-458.727"/>
<polygon fill="black" stroke="black" points="436.764,-455.224 426.262,-456.629 435.348,-462.079 436.764,-455.224"/>
</g>
<!-- LADir -->
<g id="node4" class="node"><title>LADir</title>
<polygon fill="none" stroke="black" points="568,-468 514,-468 514,-432 568,-432 568,-468"/>
<text text-anchor="middle" x="541" y="-447.299" font-family="ArialMT" font-size="12.00" fill="blue">LADir</text>
</g>
<!-- Command&#45;&gt;LADir -->
<g id="edge3" class="edge"><title>Command&#45;&gt;LADir</title>
<path fill="none" stroke="black" stroke-dasharray="5,2" d="M705.249,-509.679C674.626,-499.052 627.646,-482.643 587,-468 583.956,-466.903 580.802,-465.758 577.638,-464.602"/>
<polygon fill="black" stroke="black" points="578.809,-461.303 568.216,-461.142 576.396,-467.874 578.809,-461.303"/>
</g>
<!-- Downloading -->
<g id="node5" class="node"><title>Downloading</title>
<polygon fill="none" stroke="black" points="681.882,-468 596.118,-468 596.118,-432 681.882,-432 681.882,-468"/>
<text text-anchor="middle" x="639" y="-447.299" font-family="ArialMT" font-size="12.00" fill="blue">Downloading</text>
</g>
<!-- Command&#45;&gt;Downloading -->
<g id="edge4" class="edge"><title>Command&#45;&gt;Downloading</title>
<path fill="none" stroke="black" stroke-dasharray="5,2" d="M716.518,-505.811C703.398,-496.534 686.361,-484.488 671.602,-474.052"/>
<polygon fill="black" stroke="black" points="673.408,-471.042 663.222,-468.127 669.367,-476.758 673.408,-471.042"/>
</g>
<!-- Commands -->
<g id="node6" class="node"><title>Commands</title>
<polygon fill="none" stroke="black" points="776.854,-468 699.146,-468 699.146,-432 776.854,-432 776.854,-468"/>
<text text-anchor="middle" x="738" y="-447.299" font-family="ArialMT" font-size="12.00" fill="blue">Commands</text>
</g>
<!-- Command&#45;&gt;Commands -->
<g id="edge5" class="edge"><title>Command&#45;&gt;Commands</title>
<path fill="none" stroke="black" stroke-dasharray="5,2" d="M738,-503.697C738,-495.983 738,-486.712 738,-478.112"/>
<polygon fill="black" stroke="black" points="741.5,-478.104 738,-468.104 734.5,-478.104 741.5,-478.104"/>
</g>
<!-- Move -->
<g id="node7" class="node"><title>Move</title>
<polygon fill="none" stroke="black" points="870,-468 816,-468 816,-432 870,-432 870,-468"/>
<text text-anchor="middle" x="843" y="-447.299" font-family="ArialMT" font-size="12.00" fill="blue">Move</text>
</g>
<!-- Command&#45;&gt;Move -->
<g id="edge6" class="edge"><title>Command&#45;&gt;Move</title>
<path fill="none" stroke="black" stroke-dasharray="5,2" d="M760.268,-506.155C774.388,-496.741 792.935,-484.377 808.888,-473.741"/>
<polygon fill="black" stroke="black" points="811.061,-476.499 817.44,-468.04 807.178,-470.675 811.061,-476.499"/>
</g>
<!-- MoveNet -->
<g id="node8" class="node"><title>MoveNet</title>
<polygon fill="none" stroke="black" points="957.018,-468 892.982,-468 892.982,-432 957.018,-432 957.018,-468"/>
<text text-anchor="middle" x="925" y="-447.299" font-family="ArialMT" font-size="12.00" fill="blue">MoveNet</text>
</g>
<!-- Command&#45;&gt;MoveNet -->
<g id="edge7" class="edge"><title>Command&#45;&gt;MoveNet</title>
<path fill="none" stroke="black" stroke-dasharray="5,2" d="M769.722,-509.125C800.925,-497.445 848.742,-479.546 883.067,-466.697"/>
<polygon fill="black" stroke="black" points="884.67,-469.834 892.809,-463.05 882.216,-463.278 884.67,-469.834"/>
</g>
<!-- Cleanup -->
<g id="node9" class="node"><title>Cleanup</title>
<polygon fill="none" stroke="black" points="1046.2,-468 985.798,-468 985.798,-432 1046.2,-432 1046.2,-468"/>
<text text-anchor="middle" x="1016" y="-447.299" font-family="ArialMT" font-size="12.00" fill="blue">Cleanup</text>
</g>
<!-- Command&#45;&gt;Cleanup -->
<g id="edge8" class="edge"><title>Command&#45;&gt;Cleanup</title>
<path fill="none" stroke="black" stroke-dasharray="5,2" d="M777.438,-513.076C823.136,-503.609 900.545,-486.685 966,-468 969.319,-467.053 972.742,-466.016 976.168,-464.938"/>
<polygon fill="black" stroke="black" points="977.317,-468.245 985.745,-461.825 975.153,-461.588 977.317,-468.245"/>
</g>
<!-- Shell -->
<g id="node10" class="node"><title>Shell</title>
<polygon fill="none" stroke="black" points="1139,-468 1085,-468 1085,-432 1139,-432 1139,-468"/>
<text text-anchor="middle" x="1112" y="-447.299" font-family="ArialMT" font-size="12.00" fill="blue">Shell</text>
</g>
<!-- Command&#45;&gt;Shell -->
<g id="edge9" class="edge"><title>Command&#45;&gt;Shell</title>
<path fill="none" stroke="black" stroke-dasharray="5,2" d="M780.12,-515.655C841.16,-507.526 957.564,-490.583 1055,-468 1061.62,-466.465 1068.61,-464.595 1075.34,-462.664"/>
<polygon fill="black" stroke="black" points="1076.34,-466.018 1084.93,-459.822 1074.35,-459.306 1076.34,-466.018"/>
</g>
<!-- set -->
<g id="node11" class="node"><title>set</title>
<polygon fill="none" stroke="black" points="54,-396 0,-396 0,-360 54,-360 54,-396"/>
<text text-anchor="middle" x="27" y="-375.75" font-family="ArialMT" font-size="10.00">set</text>
</g>
<!-- LookAround&#45;&gt;set -->
<g id="edge10" class="edge"><title>LookAround&#45;&gt;set</title>
<path fill="none" stroke="blue" d="M117.645,-431.876C101.1,-422.225 80.3068,-410.096 62.8098,-399.889"/>
<polygon fill="blue" stroke="blue" points="64.4018,-396.766 54.0004,-394.75 60.8747,-402.812 64.4018,-396.766"/>
</g>
<!-- query -->
<g id="node12" class="node"><title>query</title>
<polygon fill="none" stroke="black" points="100,-324 46,-324 46,-288 100,-288 100,-324"/>
<text text-anchor="middle" x="73" y="-303.75" font-family="ArialMT" font-size="10.00">query</text>
</g>
<!-- LookAround&#45;&gt;query -->
<g id="edge11" class="edge"><title>LookAround&#45;&gt;query</title>
<path fill="none" stroke="blue" d="M135.437,-431.66C128.832,-421.463 120.582,-408.213 114,-396 102.9,-375.404 91.8934,-351.25 84.0832,-333.306"/>
<polygon fill="blue" stroke="blue" points="87.2622,-331.839 80.0929,-324.038 80.8328,-334.607 87.2622,-331.839"/>
</g>
<!-- tasklist -->
<g id="node13" class="node"><title>tasklist</title>
<polygon fill="none" stroke="black" points="138,-252 84,-252 84,-216 138,-216 138,-252"/>
<text text-anchor="middle" x="111" y="-231.75" font-family="ArialMT" font-size="10.00">tasklist</text>
</g>
<!-- LookAround&#45;&gt;tasklist -->
<g id="edge12" class="edge"><title>LookAround&#45;&gt;tasklist</title>
<path fill="none" stroke="blue" d="M144.115,-431.849C137.874,-394.753 123.08,-306.81 115.559,-262.103"/>
<polygon fill="blue" stroke="blue" points="119.009,-261.513 113.899,-252.232 112.106,-262.675 119.009,-261.513"/>
</g>
<!-- sc -->
<g id="node14" class="node"><title>sc</title>
<polygon fill="none" stroke="black" points="185,-180 131,-180 131,-144 185,-144 185,-180"/>
<text text-anchor="middle" x="158" y="-159.75" font-family="ArialMT" font-size="10.00">sc</text>
</g>
<!-- LookAround&#45;&gt;sc -->
<g id="edge13" class="edge"><title>LookAround&#45;&gt;sc</title>
<path fill="none" stroke="blue" d="M147.655,-431.966C149.489,-384.291 154.685,-249.185 156.937,-190.63"/>
<polygon fill="blue" stroke="blue" points="160.447,-190.434 157.334,-180.306 153.453,-190.165 160.447,-190.434"/>
</g>
<!-- whoami -->
<g id="node15" class="node"><title>whoami</title>
<polygon fill="none" stroke="black" points="240,-108 186,-108 186,-72 240,-72 240,-108"/>
<text text-anchor="middle" x="213" y="-87.7495" font-family="ArialMT" font-size="10.00">whoami</text>
</g>
<!-- LookAround&#45;&gt;whoami -->
<g id="edge14" class="edge"><title>LookAround&#45;&gt;whoami</title>
<path fill="none" stroke="blue" d="M160.997,-431.824C180.371,-406.257 213,-355.934 213,-307 213,-307 213,-307 213,-233 213,-192.996 213,-146.653 213,-118.08"/>
<polygon fill="blue" stroke="blue" points="216.5,-118.049 213,-108.049 209.5,-118.049 216.5,-118.049"/>
</g>
<!-- ipconfig -->
<g id="node16" class="node"><title>ipconfig</title>
<polygon fill="none" stroke="black" points="295,-396 241,-396 241,-360 295,-360 295,-396"/>
<text text-anchor="middle" x="268" y="-375.75" font-family="ArialMT" font-size="10.00">ipconfig</text>
</g>
<!-- LANet&#45;&gt;ipconfig -->
<g id="edge15" class="edge"><title>LANet&#45;&gt;ipconfig</title>
<path fill="none" stroke="green" d="M371.857,-434.496C352.184,-423.984 325.384,-409.663 303.936,-398.203"/>
<polygon fill="green" stroke="green" points="305.578,-395.111 295.109,-393.485 302.279,-401.285 305.578,-395.111"/>
</g>
<!-- ping -->
<g id="node17" class="node"><title>ping</title>
<polygon fill="none" stroke="black" points="333,-324 279,-324 279,-288 333,-288 333,-324"/>
<text text-anchor="middle" x="306" y="-303.75" font-family="ArialMT" font-size="10.00">ping</text>
</g>
<!-- LANet&#45;&gt;ping -->
<g id="edge16" class="edge"><title>LANet&#45;&gt;ping</title>
<path fill="none" stroke="green" d="M379.273,-431.989C368.761,-422.211 356.148,-409.264 347,-396 333.635,-376.622 322.739,-352.189 315.548,-333.828"/>
<polygon fill="green" stroke="green" points="318.762,-332.431 311.942,-324.323 312.217,-334.914 318.762,-332.431"/>
</g>
<!-- net user -->
<g id="node18" class="node"><title>net user</title>
<polygon fill="none" stroke="black" points="371,-252 317,-252 317,-216 371,-216 371,-252"/>
<text text-anchor="middle" x="344" y="-231.75" font-family="ArialMT" font-size="10.00">net user</text>
</g>
<!-- LANet&#45;&gt;net user -->
<g id="edge17" class="edge"><title>LANet&#45;&gt;net user</title>
<path fill="none" stroke="green" d="M394.422,-431.824C391.668,-421.456 388.106,-407.976 385,-396 372.832,-349.093 358.977,-294.411 350.889,-262.362"/>
<polygon fill="green" stroke="green" points="354.217,-261.246 348.378,-252.405 347.43,-262.957 354.217,-261.246"/>
</g>
<!-- net view -->
<g id="node19" class="node"><title>net view</title>
<polygon fill="none" stroke="black" points="409,-180 355,-180 355,-144 409,-144 409,-180"/>
<text text-anchor="middle" x="382" y="-159.75" font-family="ArialMT" font-size="10.00">net view</text>
</g>
<!-- LANet&#45;&gt;net view -->
<g id="edge18" class="edge"><title>LANet&#45;&gt;net view</title>
<path fill="none" stroke="green" d="M397.987,-431.966C395.154,-384.291 387.123,-249.185 383.642,-190.63"/>
<polygon fill="green" stroke="green" points="387.116,-190.081 383.029,-180.306 380.128,-190.497 387.116,-190.081"/>
</g>
<!-- net localgroup -->
<g id="node20" class="node"><title>net localgroup</title>
<polygon fill="none" stroke="black" points="447.322,-108 368.678,-108 368.678,-72 447.322,-72 447.322,-108"/>
<text text-anchor="middle" x="408" y="-87.7495" font-family="ArialMT" font-size="10.00">net localgroup</text>
</g>
<!-- LANet&#45;&gt;net localgroup -->
<g id="edge19" class="edge"><title>LANet&#45;&gt;net localgroup</title>
<path fill="none" stroke="green" d="M406.69,-431.907C417.794,-405.623 437,-353.447 437,-307 437,-307 437,-307 437,-233 437,-192.215 425.373,-146.148 416.844,-117.84"/>
<polygon fill="green" stroke="green" points="420.176,-116.769 413.869,-108.257 413.491,-118.845 420.176,-116.769"/>
</g>
<!-- netstat -->
<g id="node21" class="node"><title>netstat</title>
<polygon fill="none" stroke="black" points="502,-36 448,-36 448,-0 502,-0 502,-36"/>
<text text-anchor="middle" x="475" y="-15.7495" font-family="ArialMT" font-size="10.00">netstat</text>
</g>
<!-- LANet&#45;&gt;netstat -->
<g id="edge20" class="edge"><title>LANet&#45;&gt;netstat</title>
<path fill="none" stroke="green" d="M415.491,-431.772C437.843,-406.534 475,-357.051 475,-307 475,-307 475,-307 475,-161 475,-120.996 475,-74.6528 475,-46.0798"/>
<polygon fill="green" stroke="green" points="478.5,-46.0492 475,-36.0493 471.5,-46.0493 478.5,-46.0492"/>
</g>
<!-- dir -->
<g id="node22" class="node"><title>dir</title>
<polygon fill="none" stroke="black" points="557,-396 503,-396 503,-360 557,-360 557,-396"/>
<text text-anchor="middle" x="530" y="-375.75" font-family="ArialMT" font-size="10.00">dir</text>
</g>
<!-- LADir&#45;&gt;dir -->
<g id="edge21" class="edge"><title>LADir&#45;&gt;dir</title>
<path fill="none" stroke="orange" d="M538.281,-431.697C537.069,-423.983 535.612,-414.712 534.261,-406.112"/>
<polygon fill="orange" stroke="orange" points="537.698,-405.44 532.688,-396.104 530.783,-406.526 537.698,-405.44"/>
</g>
<!-- download -->
<g id="node23" class="node"><title>download</title>
<polygon fill="none" stroke="black" points="633.313,-396 574.687,-396 574.687,-360 633.313,-360 633.313,-396"/>
<text text-anchor="middle" x="604" y="-375.75" font-family="ArialMT" font-size="10.00">download</text>
</g>
<!-- Downloading&#45;&gt;download -->
<g id="edge22" class="edge"><title>Downloading&#45;&gt;download</title>
<path fill="none" stroke="brown" d="M630.348,-431.697C626.364,-423.728 621.55,-414.1 617.132,-405.264"/>
<polygon fill="brown" stroke="brown" points="620.155,-403.483 612.552,-396.104 613.894,-406.614 620.155,-403.483"/>
</g>
<!-- type -->
<g id="node24" class="node"><title>type</title>
<polygon fill="none" stroke="black" points="688,-324 634,-324 634,-288 688,-288 688,-324"/>
<text text-anchor="middle" x="661" y="-303.75" font-family="ArialMT" font-size="10.00">type</text>
</g>
<!-- Downloading&#45;&gt;type -->
<g id="edge23" class="edge"><title>Downloading&#45;&gt;type</title>
<path fill="none" stroke="brown" d="M641.654,-431.871C645.403,-407.67 652.291,-363.211 656.756,-334.393"/>
<polygon fill="brown" stroke="brown" points="660.264,-334.607 658.337,-324.189 653.347,-333.535 660.264,-334.607"/>
</g>
<!-- .*exe -->
<g id="node25" class="node"><title>.*exe</title>
<polygon fill="none" stroke="black" points="743,-396 689,-396 689,-360 743,-360 743,-396"/>
<text text-anchor="middle" x="716" y="-375.75" font-family="ArialMT" font-size="10.00">.*exe</text>
</g>
<!-- Commands&#45;&gt;.*exe -->
<g id="edge24" class="edge"><title>Commands&#45;&gt;.*exe</title>
<path fill="none" stroke="red" d="M732.562,-431.697C730.111,-423.898 727.16,-414.509 724.432,-405.829"/>
<polygon fill="red" stroke="red" points="727.713,-404.595 721.376,-396.104 721.035,-406.694 727.713,-404.595"/>
</g>
<!-- cd -->
<g id="node26" class="node"><title>cd</title>
<polygon fill="none" stroke="black" points="815,-396 761,-396 761,-360 815,-360 815,-396"/>
<text text-anchor="middle" x="788" y="-375.75" font-family="ArialMT" font-size="10.00">cd</text>
</g>
<!-- Move&#45;&gt;cd -->
<g id="edge25" class="edge"><title>Move&#45;&gt;cd</title>
<path fill="none" stroke="purple" d="M829.404,-431.697C822.877,-423.389 814.932,-413.277 807.753,-404.141"/>
<polygon fill="purple" stroke="purple" points="810.369,-401.805 801.439,-396.104 804.865,-406.13 810.369,-401.805"/>
</g>
<!-- copy -->
<g id="node27" class="node"><title>copy</title>
<polygon fill="none" stroke="black" points="853,-324 799,-324 799,-288 853,-288 853,-324"/>
<text text-anchor="middle" x="826" y="-303.75" font-family="ArialMT" font-size="10.00">copy</text>
</g>
<!-- Move&#45;&gt;copy -->
<g id="edge26" class="edge"><title>Move&#45;&gt;copy</title>
<path fill="none" stroke="purple" d="M840.949,-431.871C838.052,-407.67 832.729,-363.211 829.279,-334.393"/>
<polygon fill="purple" stroke="purple" points="832.722,-333.702 828.058,-324.189 825.771,-334.534 832.722,-333.702"/>
</g>
<!-- ren -->
<g id="node28" class="node"><title>ren</title>
<polygon fill="none" stroke="black" points="891,-252 837,-252 837,-216 891,-216 891,-252"/>
<text text-anchor="middle" x="864" y="-231.75" font-family="ArialMT" font-size="10.00">ren</text>
</g>
<!-- Move&#45;&gt;ren -->
<g id="edge27" class="edge"><title>Move&#45;&gt;ren</title>
<path fill="none" stroke="purple" d="M846.351,-431.694C850.842,-407.645 858.637,-362.707 862,-324 863.795,-303.344 864.257,-279.895 864.292,-262.254"/>
<polygon fill="purple" stroke="purple" points="867.791,-262.088 864.266,-252.097 860.791,-262.106 867.791,-262.088"/>
</g>
<!-- move -->
<g id="node29" class="node"><title>move</title>
<polygon fill="none" stroke="black" points="946,-180 892,-180 892,-144 946,-144 946,-180"/>
<text text-anchor="middle" x="919" y="-159.75" font-family="ArialMT" font-size="10.00">move</text>
</g>
<!-- Move&#45;&gt;move -->
<g id="edge28" class="edge"><title>Move&#45;&gt;move</title>
<path fill="none" stroke="purple" d="M853.201,-431.849C858.852,-421.715 865.602,-408.465 870,-396 895.478,-323.797 909.739,-234.099 915.677,-190.022"/>
<polygon fill="purple" stroke="purple" points="919.15,-190.455 916.978,-180.085 912.21,-189.546 919.15,-190.455"/>
</g>
<!-- net use -->
<g id="node30" class="node"><title>net use</title>
<polygon fill="none" stroke="black" points="1001,-396 947,-396 947,-360 1001,-360 1001,-396"/>
<text text-anchor="middle" x="974" y="-375.75" font-family="ArialMT" font-size="10.00">net use</text>
</g>
<!-- MoveNet&#45;&gt;net use -->
<g id="edge29" class="edge"><title>MoveNet&#45;&gt;net use</title>
<path fill="none" stroke="aqua" d="M937.112,-431.697C942.868,-423.474 949.862,-413.483 956.206,-404.421"/>
<polygon fill="aqua" stroke="aqua" points="959.16,-406.304 962.027,-396.104 953.425,-402.29 959.16,-406.304"/>
</g>
<!-- del -->
<g id="node31" class="node"><title>del</title>
<polygon fill="none" stroke="black" points="1073,-396 1019,-396 1019,-360 1073,-360 1073,-396"/>
<text text-anchor="middle" x="1046" y="-375.75" font-family="ArialMT" font-size="10.00">del</text>
</g>
<!-- Cleanup&#45;&gt;del -->
<g id="edge30" class="edge"><title>Cleanup&#45;&gt;del</title>
<path fill="none" stroke="yellow" d="M1023.42,-431.697C1026.79,-423.813 1030.87,-414.304 1034.62,-405.546"/>
<polygon fill="yellow" stroke="yellow" points="1037.95,-406.675 1038.67,-396.104 1031.51,-403.917 1037.95,-406.675"/>
</g>
<!-- cmd.exe -->
<g id="node32" class="node"><title>cmd.exe</title>
<polygon fill="none" stroke="black" points="1145,-396 1091,-396 1091,-360 1145,-360 1145,-396"/>
<text text-anchor="middle" x="1118" y="-375.75" font-family="ArialMT" font-size="10.00">cmd.exe</text>
</g>
<!-- Shell&#45;&gt;cmd.exe -->
<g id="edge31" class="edge"><title>Shell&#45;&gt;cmd.exe</title>
<path fill="none" stroke="black" d="M1113.48,-431.697C1114.14,-423.983 1114.94,-414.712 1115.68,-406.112"/>
<polygon fill="black" stroke="black" points="1119.17,-406.367 1116.53,-396.104 1112.19,-405.769 1119.17,-406.367"/>
</g>
</g>
</svg>
