<?xml version="1.0" encoding="UTF-8" standalone="no"?>
<!DOCTYPE svg PUBLIC "-//W3C//DTD SVG 1.1//EN"
 "http://www.w3.org/Graphics/SVG/1.1/DTD/svg11.dtd">
<!-- Generated by graphviz version 2.38.0 (20140413.2041)
 -->
<!-- Title: CommandAbstraction Pages: 1 -->
<svg width="432pt" height="51pt"
 viewBox="0.00 0.00 432.00 50.70" xmlns="http://www.w3.org/2000/svg" xmlns:xlink="http://www.w3.org/1999/xlink">
<g id="graph0" class="graph" transform="scale(0.269663 0.269663) rotate(0) translate(4 184)">
<title>CommandAbstraction</title>
<polygon fill="white" stroke="none" points="-4,4 -4,-184 1598,-184 1598,4 -4,4"/>
<!-- Command -->
<g id="node1" class="node"><title>Command</title>
<ellipse fill="none" stroke="black" cx="1076" cy="-162" rx="44.6601" ry="18"/>
<text text-anchor="middle" x="1076" y="-159.299" font-family="ArialMT" font-size="12.00" fill="red">Command</text>
</g>
<!-- LookAround -->
<g id="node2" class="node"><title>LookAround</title>
<polygon fill="none" stroke="black" points="247.217,-108 166.783,-108 166.783,-72 247.217,-72 247.217,-108"/>
<text text-anchor="middle" x="207" y="-87.2994" font-family="ArialMT" font-size="12.00" fill="blue">LookAround</text>
</g>
<!-- Command&#45;&gt;LookAround -->
<g id="edge1" class="edge"><title>Command&#45;&gt;LookAround</title>
<path fill="none" stroke="black" stroke-dasharray="5,2" d="M1032.31,-157.481C885.957,-145.692 413.426,-107.628 257.467,-95.0652"/>
<polygon fill="black" stroke="black" points="257.475,-91.5546 247.226,-94.2403 256.913,-98.532 257.475,-91.5546"/>
</g>
<!-- LANet -->
<g id="node3" class="node"><title>LANet</title>
<polygon fill="none" stroke="black" points="630,-108 576,-108 576,-72 630,-72 630,-108"/>
<text text-anchor="middle" x="603" y="-87.2994" font-family="ArialMT" font-size="12.00" fill="blue">LANet</text>
</g>
<!-- Command&#45;&gt;LANet -->
<g id="edge2" class="edge"><title>Command&#45;&gt;LANet</title>
<path fill="none" stroke="black" stroke-dasharray="5,2" d="M1034.44,-154.849C943.24,-141.353 726.801,-109.322 639.977,-96.4722"/>
<polygon fill="black" stroke="black" points="640.453,-93.0046 630.048,-95.0029 639.428,-99.9292 640.453,-93.0046"/>
</g>
<!-- LADir -->
<g id="node4" class="node"><title>LADir</title>
<polygon fill="none" stroke="black" points="900,-108 846,-108 846,-72 900,-72 900,-108"/>
<text text-anchor="middle" x="873" y="-87.2994" font-family="ArialMT" font-size="12.00" fill="blue">LADir</text>
</g>
<!-- Command&#45;&gt;LADir -->
<g id="edge3" class="edge"><title>Command&#45;&gt;LADir</title>
<path fill="none" stroke="black" stroke-dasharray="5,2" d="M1042.93,-149.597C1006.42,-137.008 947.804,-116.795 909.848,-103.706"/>
<polygon fill="black" stroke="black" points="910.793,-100.33 900.198,-100.379 908.511,-106.947 910.793,-100.33"/>
</g>
<!-- Downloading -->
<g id="node5" class="node"><title>Downloading</title>
<polygon fill="none" stroke="black" points="1019.88,-108 934.118,-108 934.118,-72 1019.88,-72 1019.88,-108"/>
<text text-anchor="middle" x="977" y="-87.2994" font-family="ArialMT" font-size="12.00" fill="blue">Downloading</text>
</g>
<!-- Command&#45;&gt;Downloading -->
<g id="edge4" class="edge"><title>Command&#45;&gt;Downloading</title>
<path fill="none" stroke="black" stroke-dasharray="5,2" d="M1054.52,-145.811C1041.4,-136.534 1024.36,-124.488 1009.6,-114.052"/>
<polygon fill="black" stroke="black" points="1011.41,-111.042 1001.22,-108.127 1007.37,-116.758 1011.41,-111.042"/>
</g>
<!-- Commands -->
<g id="node6" class="node"><title>Commands</title>
<polygon fill="none" stroke="black" points="1114.85,-108 1037.15,-108 1037.15,-72 1114.85,-72 1114.85,-108"/>
<text text-anchor="middle" x="1076" y="-87.2994" font-family="ArialMT" font-size="12.00" fill="blue">Commands</text>
</g>
<!-- Command&#45;&gt;Commands -->
<g id="edge5" class="edge"><title>Command&#45;&gt;Commands</title>
<path fill="none" stroke="black" stroke-dasharray="5,2" d="M1076,-143.697C1076,-135.983 1076,-126.712 1076,-118.112"/>
<polygon fill="black" stroke="black" points="1079.5,-118.104 1076,-108.104 1072.5,-118.104 1079.5,-118.104"/>
</g>
<!-- Move -->
<g id="node7" class="node"><title>Move</title>
<polygon fill="none" stroke="black" points="1234,-108 1180,-108 1180,-72 1234,-72 1234,-108"/>
<text text-anchor="middle" x="1207" y="-87.2994" font-family="ArialMT" font-size="12.00" fill="blue">Move</text>
</g>
<!-- Command&#45;&gt;Move -->
<g id="edge6" class="edge"><title>Command&#45;&gt;Move</title>
<path fill="none" stroke="black" stroke-dasharray="5,2" d="M1101.88,-147.17C1121.59,-136.641 1148.95,-122.019 1170.82,-110.332"/>
<polygon fill="black" stroke="black" points="1172.65,-113.324 1179.82,-105.524 1169.35,-107.15 1172.65,-113.324"/>
</g>
<!-- MoveNet -->
<g id="node8" class="node"><title>MoveNet</title>
<polygon fill="none" stroke="black" points="1332.02,-108 1267.98,-108 1267.98,-72 1332.02,-72 1332.02,-108"/>
<text text-anchor="middle" x="1300" y="-87.2994" font-family="ArialMT" font-size="12.00" fill="blue">MoveNet</text>
</g>
<!-- Command&#45;&gt;MoveNet -->
<g id="edge7" class="edge"><title>Command&#45;&gt;MoveNet</title>
<path fill="none" stroke="black" stroke-dasharray="5,2" d="M1110.51,-150.216C1150.16,-137.825 1215.23,-117.491 1257.84,-104.174"/>
<polygon fill="black" stroke="black" points="1259.13,-107.438 1267.64,-101.114 1257.05,-100.756 1259.13,-107.438"/>
</g>
<!-- Cleanup -->
<g id="node9" class="node"><title>Cleanup</title>
<polygon fill="none" stroke="black" points="1442.2,-108 1381.8,-108 1381.8,-72 1442.2,-72 1442.2,-108"/>
<text text-anchor="middle" x="1412" y="-87.2994" font-family="ArialMT" font-size="12.00" fill="blue">Cleanup</text>
</g>
<!-- Command&#45;&gt;Cleanup -->
<g id="edge8" class="edge"><title>Command&#45;&gt;Cleanup</title>
<path fill="none" stroke="black" stroke-dasharray="5,2" d="M1115.61,-153.561C1167.5,-143.704 1261.26,-125.513 1341,-108 1351.03,-105.798 1361.82,-103.287 1371.88,-100.884"/>
<polygon fill="black" stroke="black" points="1372.75,-104.275 1381.65,-98.5315 1371.11,-97.4695 1372.75,-104.275"/>
</g>
<!-- Shell -->
<g id="node10" class="node"><title>Shell</title>
<polygon fill="none" stroke="black" points="1578,-108 1524,-108 1524,-72 1578,-72 1578,-108"/>
<text text-anchor="middle" x="1551" y="-87.2994" font-family="ArialMT" font-size="12.00" fill="blue">Shell</text>
</g>
<!-- Command&#45;&gt;Shell -->
<g id="edge9" class="edge"><title>Command&#45;&gt;Shell</title>
<path fill="none" stroke="black" stroke-dasharray="5,2" d="M1117.96,-155.46C1187.34,-146.211 1330.32,-126.782 1451,-108 1471.85,-104.755 1495.09,-100.824 1513.91,-97.5596"/>
<polygon fill="black" stroke="black" points="1514.62,-100.989 1523.87,-95.8232 1513.42,-94.0927 1514.62,-100.989"/>
</g>
<!-- set -->
<g id="node11" class="node"><title>set</title>
<polygon fill="none" stroke="black" points="54,-36 0,-36 0,-0 54,-0 54,-36"/>
<text text-anchor="middle" x="27" y="-15.7495" font-family="ArialMT" font-size="10.00">set</text>
</g>
<!-- LookAround&#45;&gt;set -->
<g id="edge10" class="edge"><title>LookAround&#45;&gt;set</title>
<path fill="none" stroke="blue" d="M166.593,-75.2054C139.623,-65.7565 103.243,-52.5496 63.3858,-35.9979"/>
<polygon fill="blue" stroke="blue" points="64.5869,-32.7064 54.0112,-32.0693 61.8814,-39.1624 64.5869,-32.7064"/>
</g>
<!-- query -->
<g id="node12" class="node"><title>query</title>
<polygon fill="none" stroke="black" points="126,-36 72,-36 72,-0 126,-0 126,-36"/>
<text text-anchor="middle" x="99" y="-15.7495" font-family="ArialMT" font-size="10.00">query</text>
</g>
<!-- LookAround&#45;&gt;query -->
<g id="edge11" class="edge"><title>LookAround&#45;&gt;query</title>
<path fill="none" stroke="blue" d="M180.58,-71.8761C166.59,-62.8083 149.224,-51.5523 134.114,-41.7592"/>
<polygon fill="blue" stroke="blue" points="135.817,-38.6917 125.521,-36.1898 132.009,-44.5658 135.817,-38.6917"/>
</g>
<!-- tasklist -->
<g id="node13" class="node"><title>tasklist</title>
<polygon fill="none" stroke="black" points="198,-36 144,-36 144,-0 198,-0 198,-36"/>
<text text-anchor="middle" x="171" y="-15.7495" font-family="ArialMT" font-size="10.00">tasklist</text>
</g>
<!-- LookAround&#45;&gt;tasklist -->
<g id="edge12" class="edge"><title>LookAround&#45;&gt;tasklist</title>
<path fill="none" stroke="blue" d="M198.101,-71.6966C194.003,-63.7284 189.051,-54.0995 184.507,-45.2641"/>
<polygon fill="blue" stroke="blue" points="187.483,-43.3965 179.797,-36.1043 181.258,-46.598 187.483,-43.3965"/>
</g>
<!-- sc -->
<g id="node14" class="node"><title>sc</title>
<polygon fill="none" stroke="black" points="270,-36 216,-36 216,-0 270,-0 270,-36"/>
<text text-anchor="middle" x="243" y="-15.7495" font-family="ArialMT" font-size="10.00">sc</text>
</g>
<!-- LookAround&#45;&gt;sc -->
<g id="edge13" class="edge"><title>LookAround&#45;&gt;sc</title>
<path fill="none" stroke="blue" d="M215.899,-71.6966C219.997,-63.7284 224.949,-54.0995 229.493,-45.2641"/>
<polygon fill="blue" stroke="blue" points="232.742,-46.598 234.203,-36.1043 226.517,-43.3965 232.742,-46.598"/>
</g>
<!-- whoami -->
<g id="node15" class="node"><title>whoami</title>
<polygon fill="none" stroke="black" points="342,-36 288,-36 288,-0 342,-0 342,-36"/>
<text text-anchor="middle" x="315" y="-15.7495" font-family="ArialMT" font-size="10.00">whoami</text>
</g>
<!-- LookAround&#45;&gt;whoami -->
<g id="edge14" class="edge"><title>LookAround&#45;&gt;whoami</title>
<path fill="none" stroke="blue" d="M233.42,-71.8761C247.41,-62.8083 264.776,-51.5523 279.886,-41.7592"/>
<polygon fill="blue" stroke="blue" points="281.991,-44.5658 288.479,-36.1898 278.183,-38.6917 281.991,-44.5658"/>
</g>
<!-- ipconfig -->
<g id="node16" class="node"><title>ipconfig</title>
<polygon fill="none" stroke="black" points="414,-36 360,-36 360,-0 414,-0 414,-36"/>
<text text-anchor="middle" x="387" y="-15.7495" font-family="ArialMT" font-size="10.00">ipconfig</text>
</g>
<!-- LANet&#45;&gt;ipconfig -->
<g id="edge15" class="edge"><title>LANet&#45;&gt;ipconfig</title>
<path fill="none" stroke="green" d="M575.732,-82.3778C541.902,-73.8602 482.413,-57.8969 423.734,-36.0042"/>
<polygon fill="green" stroke="green" points="424.919,-32.7104 414.328,-32.4399 422.439,-39.2562 424.919,-32.7104"/>
</g>
<!-- ping -->
<g id="node17" class="node"><title>ping</title>
<polygon fill="none" stroke="black" points="486,-36 432,-36 432,-0 486,-0 486,-36"/>
<text text-anchor="middle" x="459" y="-15.7495" font-family="ArialMT" font-size="10.00">ping</text>
</g>
<!-- LANet&#45;&gt;ping -->
<g id="edge16" class="edge"><title>LANet&#45;&gt;ping</title>
<path fill="none" stroke="green" d="M575.915,-75.8335C553.231,-64.8066 520.643,-48.9655 495.632,-36.8072"/>
<polygon fill="green" stroke="green" points="496.977,-33.5696 486.453,-32.3454 493.917,-39.8652 496.977,-33.5696"/>
</g>
<!-- net user -->
<g id="node18" class="node"><title>net user</title>
<polygon fill="none" stroke="black" points="558,-36 504,-36 504,-0 558,-0 558,-36"/>
<text text-anchor="middle" x="531" y="-15.7495" font-family="ArialMT" font-size="10.00">net user</text>
</g>
<!-- LANet&#45;&gt;net user -->
<g id="edge17" class="edge"><title>LANet&#45;&gt;net user</title>
<path fill="none" stroke="green" d="M585.202,-71.6966C576.396,-63.135 565.618,-52.6562 555.999,-43.3045"/>
<polygon fill="green" stroke="green" points="558.203,-40.5657 548.593,-36.1043 553.323,-45.5846 558.203,-40.5657"/>
</g>
<!-- net view -->
<g id="node19" class="node"><title>net view</title>
<polygon fill="none" stroke="black" points="630,-36 576,-36 576,-0 630,-0 630,-36"/>
<text text-anchor="middle" x="603" y="-15.7495" font-family="ArialMT" font-size="10.00">net view</text>
</g>
<!-- LANet&#45;&gt;net view -->
<g id="edge18" class="edge"><title>LANet&#45;&gt;net view</title>
<path fill="none" stroke="green" d="M603,-71.6966C603,-63.9827 603,-54.7125 603,-46.1124"/>
<polygon fill="green" stroke="green" points="606.5,-46.1043 603,-36.1043 599.5,-46.1044 606.5,-46.1043"/>
</g>
<!-- net localgroup -->
<g id="node20" class="node"><title>net localgroup</title>
<polygon fill="none" stroke="black" points="726.322,-36 647.678,-36 647.678,-0 726.322,-0 726.322,-36"/>
<text text-anchor="middle" x="687" y="-15.7495" font-family="ArialMT" font-size="10.00">net localgroup</text>
</g>
<!-- LANet&#45;&gt;net localgroup -->
<g id="edge19" class="edge"><title>LANet&#45;&gt;net localgroup</title>
<path fill="none" stroke="green" d="M623.764,-71.6966C634.241,-62.9655 647.111,-52.2405 658.5,-42.7503"/>
<polygon fill="green" stroke="green" points="661.033,-45.195 666.475,-36.1043 656.552,-39.8174 661.033,-45.195"/>
</g>
<!-- netstat -->
<g id="node21" class="node"><title>netstat</title>
<polygon fill="none" stroke="black" points="798,-36 744,-36 744,-0 798,-0 798,-36"/>
<text text-anchor="middle" x="771" y="-15.7495" font-family="ArialMT" font-size="10.00">netstat</text>
</g>
<!-- LANet&#45;&gt;netstat -->
<g id="edge20" class="edge"><title>LANet&#45;&gt;netstat</title>
<path fill="none" stroke="green" d="M630.246,-78.6052C655.187,-68.9708 693.288,-53.9575 734.542,-36.0861"/>
<polygon fill="green" stroke="green" points="736.184,-39.1884 743.952,-31.9833 733.387,-32.7717 736.184,-39.1884"/>
</g>
<!-- dir -->
<g id="node22" class="node"><title>dir</title>
<polygon fill="none" stroke="black" points="870,-36 816,-36 816,-0 870,-0 870,-36"/>
<text text-anchor="middle" x="843" y="-15.7495" font-family="ArialMT" font-size="10.00">dir</text>
</g>
<!-- LADir&#45;&gt;dir -->
<g id="edge21" class="edge"><title>LADir&#45;&gt;dir</title>
<path fill="none" stroke="orange" d="M865.584,-71.6966C862.206,-63.8132 858.13,-54.3042 854.377,-45.5464"/>
<polygon fill="orange" stroke="orange" points="857.487,-43.9171 850.33,-36.1043 851.053,-46.6745 857.487,-43.9171"/>
</g>
<!-- download -->
<g id="node23" class="node"><title>download</title>
<polygon fill="none" stroke="black" points="946.313,-36 887.687,-36 887.687,-0 946.313,-0 946.313,-36"/>
<text text-anchor="middle" x="917" y="-15.7495" font-family="ArialMT" font-size="10.00">download</text>
</g>
<!-- Downloading&#45;&gt;download -->
<g id="edge22" class="edge"><title>Downloading&#45;&gt;download</title>
<path fill="none" stroke="brown" d="M962.169,-71.6966C954.975,-63.3046 946.203,-53.0705 938.31,-43.8613"/>
<polygon fill="brown" stroke="brown" points="940.826,-41.4191 931.661,-36.1043 935.511,-45.9747 940.826,-41.4191"/>
</g>
<!-- type -->
<g id="node24" class="node"><title>type</title>
<polygon fill="none" stroke="black" points="1018,-36 964,-36 964,-0 1018,-0 1018,-36"/>
<text text-anchor="middle" x="991" y="-15.7495" font-family="ArialMT" font-size="10.00">type</text>
</g>
<!-- Downloading&#45;&gt;type -->
<g id="edge23" class="edge"><title>Downloading&#45;&gt;type</title>
<path fill="none" stroke="brown" d="M980.461,-71.6966C982.003,-63.9827 983.858,-54.7125 985.578,-46.1124"/>
<polygon fill="brown" stroke="brown" points="989.05,-46.5966 987.579,-36.1043 982.186,-45.2237 989.05,-46.5966"/>
</g>
<!-- .*exe -->
<g id="node25" class="node"><title>.*exe</title>
<polygon fill="none" stroke="black" points="1090,-36 1036,-36 1036,-0 1090,-0 1090,-36"/>
<text text-anchor="middle" x="1063" y="-15.7495" font-family="ArialMT" font-size="10.00">.*exe</text>
</g>
<!-- Commands&#45;&gt;.*exe -->
<g id="edge24" class="edge"><title>Commands&#45;&gt;.*exe</title>
<path fill="none" stroke="red" d="M1072.79,-71.6966C1071.35,-63.9827 1069.63,-54.7125 1068.04,-46.1124"/>
<polygon fill="red" stroke="red" points="1071.44,-45.2971 1066.18,-36.1043 1064.56,-46.5753 1071.44,-45.2971"/>
</g>
<!-- cd -->
<g id="node26" class="node"><title>cd</title>
<polygon fill="none" stroke="black" points="1162,-36 1108,-36 1108,-0 1162,-0 1162,-36"/>
<text text-anchor="middle" x="1135" y="-15.7495" font-family="ArialMT" font-size="10.00">cd</text>
</g>
<!-- Move&#45;&gt;cd -->
<g id="edge25" class="edge"><title>Move&#45;&gt;cd</title>
<path fill="none" stroke="purple" d="M1189.2,-71.6966C1180.4,-63.135 1169.62,-52.6562 1160,-43.3045"/>
<polygon fill="purple" stroke="purple" points="1162.2,-40.5657 1152.59,-36.1043 1157.32,-45.5846 1162.2,-40.5657"/>
</g>
<!-- copy -->
<g id="node27" class="node"><title>copy</title>
<polygon fill="none" stroke="black" points="1234,-36 1180,-36 1180,-0 1234,-0 1234,-36"/>
<text text-anchor="middle" x="1207" y="-15.7495" font-family="ArialMT" font-size="10.00">copy</text>
</g>
<!-- Move&#45;&gt;copy -->
<g id="edge26" class="edge"><title>Move&#45;&gt;copy</title>
<path fill="none" stroke="purple" d="M1207,-71.6966C1207,-63.9827 1207,-54.7125 1207,-46.1124"/>
<polygon fill="purple" stroke="purple" points="1210.5,-46.1043 1207,-36.1043 1203.5,-46.1044 1210.5,-46.1043"/>
</g>
<!-- ren -->
<g id="node28" class="node"><title>ren</title>
<polygon fill="none" stroke="black" points="1306,-36 1252,-36 1252,-0 1306,-0 1306,-36"/>
<text text-anchor="middle" x="1279" y="-15.7495" font-family="ArialMT" font-size="10.00">ren</text>
</g>
<!-- Move&#45;&gt;ren -->
<g id="edge27" class="edge"><title>Move&#45;&gt;ren</title>
<path fill="none" stroke="purple" d="M1224.8,-71.6966C1233.6,-63.135 1244.38,-52.6562 1254,-43.3045"/>
<polygon fill="purple" stroke="purple" points="1256.68,-45.5846 1261.41,-36.1043 1251.8,-40.5657 1256.68,-45.5846"/>
</g>
<!-- move -->
<g id="node29" class="node"><title>move</title>
<polygon fill="none" stroke="black" points="1378,-36 1324,-36 1324,-0 1378,-0 1378,-36"/>
<text text-anchor="middle" x="1351" y="-15.7495" font-family="ArialMT" font-size="10.00">move</text>
</g>
<!-- Move&#45;&gt;move -->
<g id="edge28" class="edge"><title>Move&#45;&gt;move</title>
<path fill="none" stroke="purple" d="M1234.09,-75.8335C1256.77,-64.8066 1289.36,-48.9655 1314.37,-36.8072"/>
<polygon fill="purple" stroke="purple" points="1316.08,-39.8652 1323.55,-32.3454 1313.02,-33.5696 1316.08,-39.8652"/>
</g>
<!-- net use -->
<g id="node30" class="node"><title>net use</title>
<polygon fill="none" stroke="black" points="1450,-36 1396,-36 1396,-0 1450,-0 1450,-36"/>
<text text-anchor="middle" x="1423" y="-15.7495" font-family="ArialMT" font-size="10.00">net use</text>
</g>
<!-- MoveNet&#45;&gt;net use -->
<g id="edge29" class="edge"><title>MoveNet&#45;&gt;net use</title>
<path fill="none" stroke="aqua" d="M1330.09,-71.8761C1347.17,-62.1563 1368.67,-49.9222 1386.68,-39.6706"/>
<polygon fill="aqua" stroke="aqua" points="1388.78,-42.5023 1395.74,-34.5142 1385.32,-36.4185 1388.78,-42.5023"/>
</g>
<!-- del -->
<g id="node31" class="node"><title>del</title>
<polygon fill="none" stroke="black" points="1522,-36 1468,-36 1468,-0 1522,-0 1522,-36"/>
<text text-anchor="middle" x="1495" y="-15.7495" font-family="ArialMT" font-size="10.00">del</text>
</g>
<!-- Cleanup&#45;&gt;del -->
<g id="edge30" class="edge"><title>Cleanup&#45;&gt;del</title>
<path fill="none" stroke="yellow" d="M1432.52,-71.6966C1442.87,-62.9655 1455.59,-52.2405 1466.84,-42.7503"/>
<polygon fill="yellow" stroke="yellow" points="1469.33,-45.2269 1474.72,-36.1043 1464.82,-39.8759 1469.33,-45.2269"/>
</g>
<!-- cmd.exe -->
<g id="node32" class="node"><title>cmd.exe</title>
<polygon fill="none" stroke="black" points="1594,-36 1540,-36 1540,-0 1594,-0 1594,-36"/>
<text text-anchor="middle" x="1567" y="-15.7495" font-family="ArialMT" font-size="10.00">cmd.exe</text>
</g>
<!-- Shell&#45;&gt;cmd.exe -->
<g id="edge31" class="edge"><title>Shell&#45;&gt;cmd.exe</title>
<path fill="none" stroke="black" d="M1554.96,-71.6966C1556.72,-63.9827 1558.84,-54.7125 1560.8,-46.1124"/>
<polygon fill="black" stroke="black" points="1564.27,-46.6328 1563.09,-36.1043 1557.45,-45.073 1564.27,-46.6328"/>
</g>
</g>
</svg>
