<?xml version="1.0" encoding="UTF-8" standalone="no"?>
<!DOCTYPE svg PUBLIC "-//W3C//DTD SVG 1.1//EN"
 "http://www.w3.org/Graphics/SVG/1.1/DTD/svg11.dtd">
<!-- Generated by graphviz version 2.38.0 (20140413.2041)
 -->
<!-- Title: Ontology Pages: 1 -->
<svg width="199pt" height="548pt"
 viewBox="0.00 0.00 198.91 548.00" xmlns="http://www.w3.org/2000/svg" xmlns:xlink="http://www.w3.org/1999/xlink">
<g id="graph0" class="graph" transform="scale(1 1) rotate(0) translate(4 544)">
<title>Ontology</title>
<polygon fill="white" stroke="none" points="-4,4 -4,-544 194.907,-544 194.907,4 -4,4"/>
<!-- Shell -->
<g id="node1" class="node"><title>Shell</title>
<polygon fill="none" stroke="black" points="126.907,-540 72.907,-540 72.907,-504 126.907,-504 126.907,-540"/>
<text text-anchor="middle" x="99.907" y="-519.75" font-family="Arial" font-size="10.00" fill="red">Shell</text>
</g>
<!-- LookAround -->
<g id="node2" class="node"><title>LookAround</title>
<ellipse fill="none" stroke="black" cx="55.907" cy="-450" rx="41.6905" ry="18"/>
<text text-anchor="middle" x="55.907" y="-447.75" font-family="Arial" font-size="10.00" fill="blue">LookAround</text>
</g>
<!-- Shell&#45;&gt;LookAround -->
<g id="edge1" class="edge"><title>Shell&#45;&gt;LookAround</title>
<path fill="none" stroke="black" d="M89.0306,-503.697C83.8391,-495.437 77.5261,-485.394 71.8095,-476.299"/>
<polygon fill="black" stroke="black" points="74.6403,-474.226 66.3553,-467.622 68.7138,-477.951 74.6403,-474.226"/>
</g>
<!-- LADir -->
<g id="node3" class="node"><title>LADir</title>
<ellipse fill="none" stroke="black" cx="143.907" cy="-378" rx="27" ry="18"/>
<text text-anchor="middle" x="143.907" y="-375.75" font-family="Arial" font-size="10.00" fill="blue">LADir</text>
</g>
<!-- Shell&#45;&gt;LADir -->
<g id="edge2" class="edge"><title>Shell&#45;&gt;LADir</title>
<path fill="none" stroke="black" d="M109.283,-503.754C114.492,-493.588 120.742,-480.338 124.907,-468 131.76,-447.698 136.684,-423.928 139.8,-406.063"/>
<polygon fill="black" stroke="black" points="143.279,-406.481 141.467,-396.042 136.374,-405.332 143.279,-406.481"/>
</g>
<!-- LookAround&#45;&gt;LookAround -->
<g id="edge3" class="edge"><title>LookAround&#45;&gt;LookAround</title>
<path fill="none" stroke="black" d="M85.0356,-462.899C100.937,-465.198 115.502,-460.898 115.502,-450 115.502,-441.486 106.613,-436.999 95.1408,-436.539"/>
<polygon fill="black" stroke="black" points="94.8261,-433.051 85.0356,-437.101 95.2144,-440.041 94.8261,-433.051"/>
</g>
<!-- LookAround&#45;&gt;LADir -->
<g id="edge4" class="edge"><title>LookAround&#45;&gt;LADir</title>
<path fill="none" stroke="black" d="M75.0017,-433.811C87.895,-423.555 105.043,-409.915 119.006,-398.808"/>
<polygon fill="black" stroke="black" points="121.575,-401.236 127.222,-392.272 117.217,-395.758 121.575,-401.236"/>
</g>
<!-- LANet -->
<g id="node4" class="node"><title>LANet</title>
<ellipse fill="none" stroke="black" cx="55.907" cy="-306" rx="27" ry="18"/>
<text text-anchor="middle" x="55.907" y="-303.75" font-family="Arial" font-size="10.00" fill="blue">LANet</text>
</g>
<!-- LookAround&#45;&gt;LANet -->
<g id="edge5" class="edge"><title>LookAround&#45;&gt;LANet</title>
<path fill="none" stroke="black" d="M55.907,-431.871C55.907,-407.67 55.907,-363.211 55.907,-334.393"/>
<polygon fill="black" stroke="black" points="59.4071,-334.189 55.907,-324.189 52.4071,-334.189 59.4071,-334.189"/>
</g>
<!-- Downloading -->
<g id="node5" class="node"><title>Downloading</title>
<ellipse fill="none" stroke="black" cx="43.907" cy="-162" rx="43.8142" ry="18"/>
<text text-anchor="middle" x="43.907" y="-159.75" font-family="Arial" font-size="10.00" fill="blue">Downloading</text>
</g>
<!-- LookAround&#45;&gt;Downloading -->
<g id="edge6" class="edge"><title>LookAround&#45;&gt;Downloading</title>
<path fill="none" stroke="black" d="M49.3339,-431.943C40.5642,-408.184 25.4931,-363.58 19.907,-324 13.2364,-276.735 25.8159,-221.753 35.1474,-189.813"/>
<polygon fill="black" stroke="black" points="38.5982,-190.494 38.1549,-179.909 31.9002,-188.46 38.5982,-190.494"/>
</g>
<!-- LADir&#45;&gt;LADir -->
<g id="edge7" class="edge"><title>LADir&#45;&gt;LADir</title>
<path fill="none" stroke="black" d="M163.802,-390.432C176.595,-393.675 188.907,-389.531 188.907,-378 188.907,-369.622 182.408,-365.143 173.946,-364.564"/>
<polygon fill="black" stroke="black" points="173.409,-361.1 163.802,-365.568 174.098,-368.066 173.409,-361.1"/>
</g>
<!-- Move -->
<g id="node6" class="node"><title>Move</title>
<ellipse fill="none" stroke="black" cx="145.907" cy="-306" rx="27" ry="18"/>
<text text-anchor="middle" x="145.907" y="-303.75" font-family="Arial" font-size="10.00" fill="blue">Move</text>
</g>
<!-- LADir&#45;&gt;Move -->
<g id="edge8" class="edge"><title>LADir&#45;&gt;Move</title>
<path fill="none" stroke="black" d="M144.401,-359.697C144.622,-351.983 144.887,-342.712 145.132,-334.112"/>
<polygon fill="black" stroke="black" points="148.631,-334.2 145.418,-324.104 141.634,-334 148.631,-334.2"/>
</g>
<!-- LANet&#45;&gt;LANet -->
<g id="edge9" class="edge"><title>LANet&#45;&gt;LANet</title>
<path fill="none" stroke="black" d="M75.802,-318.432C88.595,-321.675 100.907,-317.531 100.907,-306 100.907,-297.622 94.4076,-293.143 85.9465,-292.564"/>
<polygon fill="black" stroke="black" points="85.4089,-289.1 75.802,-293.568 86.098,-296.066 85.4089,-289.1"/>
</g>
<!-- MoveNet -->
<g id="node7" class="node"><title>MoveNet</title>
<ellipse fill="none" stroke="black" cx="72.907" cy="-234" rx="33.1366" ry="18"/>
<text text-anchor="middle" x="72.907" y="-231.75" font-family="Arial" font-size="10.00" fill="blue">MoveNet</text>
</g>
<!-- LANet&#45;&gt;MoveNet -->
<g id="edge10" class="edge"><title>LANet&#45;&gt;MoveNet</title>
<path fill="none" stroke="black" d="M60.0222,-288.055C61.9151,-280.261 64.2074,-270.822 66.3307,-262.079"/>
<polygon fill="black" stroke="black" points="69.7526,-262.819 68.7116,-252.275 62.9504,-261.167 69.7526,-262.819"/>
</g>
<!-- Downloading&#45;&gt;Downloading -->
<g id="edge11" class="edge"><title>Downloading&#45;&gt;Downloading</title>
<path fill="none" stroke="black" d="M74.4851,-174.943C90.8788,-177.142 105.814,-172.828 105.814,-162 105.814,-153.456 96.5151,-148.967 84.5381,-148.535"/>
<polygon fill="black" stroke="black" points="84.29,-145.043 74.4851,-149.057 84.6533,-152.033 84.29,-145.043"/>
</g>
<!-- Commands -->
<g id="node8" class="node"><title>Commands</title>
<ellipse fill="none" stroke="black" cx="127.907" cy="-90" rx="39.8563" ry="18"/>
<text text-anchor="middle" x="127.907" y="-87.7495" font-family="Arial" font-size="10.00" fill="blue">Commands</text>
</g>
<!-- Downloading&#45;&gt;Commands -->
<g id="edge12" class="edge"><title>Downloading&#45;&gt;Commands</title>
<path fill="none" stroke="black" d="M62.5493,-145.465C74.0476,-135.883 88.9704,-123.447 101.653,-112.878"/>
<polygon fill="black" stroke="black" points="104.164,-115.342 109.606,-106.251 99.6829,-109.964 104.164,-115.342"/>
</g>
<!-- Cleanup -->
<g id="node9" class="node"><title>Cleanup</title>
<ellipse fill="none" stroke="black" cx="90.907" cy="-18" rx="31.8489" ry="18"/>
<text text-anchor="middle" x="90.907" y="-15.7495" font-family="Arial" font-size="10.00" fill="blue">Cleanup</text>
</g>
<!-- Downloading&#45;&gt;Cleanup -->
<g id="edge13" class="edge"><title>Downloading&#45;&gt;Cleanup</title>
<path fill="none" stroke="black" d="M49.5763,-143.871C57.6653,-119.432 72.5921,-74.3344 82.1201,-45.5475"/>
<polygon fill="black" stroke="black" points="85.544,-46.3416 85.3635,-35.7483 78.8985,-44.142 85.544,-46.3416"/>
</g>
<!-- Move&#45;&gt;Downloading -->
<g id="edge17" class="edge"><title>Move&#45;&gt;Downloading</title>
<path fill="none" stroke="black" d="M143.059,-287.858C139.229,-268.827 130.96,-237.909 114.907,-216 105.063,-202.565 90.8436,-191.013 77.712,-182.155"/>
<polygon fill="black" stroke="black" points="79.598,-179.207 69.2966,-176.73 75.8053,-185.09 79.598,-179.207"/>
</g>
<!-- Move&#45;&gt;Move -->
<g id="edge18" class="edge"><title>Move&#45;&gt;Move</title>
<path fill="none" stroke="black" d="M165.802,-318.432C178.595,-321.675 190.907,-317.531 190.907,-306 190.907,-297.622 184.408,-293.143 175.946,-292.564"/>
<polygon fill="black" stroke="black" points="175.409,-289.1 165.802,-293.568 176.098,-296.066 175.409,-289.1"/>
</g>
<!-- Move&#45;&gt;MoveNet -->
<g id="edge19" class="edge"><title>Move&#45;&gt;MoveNet</title>
<path fill="none" stroke="black" d="M127.54,-292.485C116.33,-283.092 102.257,-269.95 91.1003,-258.603"/>
<polygon fill="black" stroke="black" points="93.3588,-255.901 83.9133,-251.102 88.3044,-260.744 93.3588,-255.901"/>
</g>
<!-- MoveNet&#45;&gt;Downloading -->
<g id="edge21" class="edge"><title>MoveNet&#45;&gt;Downloading</title>
<path fill="none" stroke="black" d="M65.8869,-216.055C62.5385,-207.973 58.4573,-198.121 54.7247,-189.112"/>
<polygon fill="black" stroke="black" points="57.9234,-187.688 50.8624,-179.789 51.4564,-190.367 57.9234,-187.688"/>
</g>
<!-- MoveNet&#45;&gt;Move -->
<g id="edge23" class="edge"><title>MoveNet&#45;&gt;Move</title>
<path fill="none" stroke="black" d="M92.6748,-248.695C103.794,-258.12 117.395,-270.872 128.164,-281.856"/>
<polygon fill="black" stroke="black" points="125.663,-284.305 135.103,-289.116 130.724,-279.468 125.663,-284.305"/>
</g>
<!-- MoveNet&#45;&gt;Commands -->
<g id="edge22" class="edge"><title>MoveNet&#45;&gt;Commands</title>
<path fill="none" stroke="black" d="M88.5992,-217.756C97.7895,-207.874 108.764,-194.228 114.907,-180 123.353,-160.438 126.489,-136.444 127.576,-118.3"/>
<polygon fill="black" stroke="black" points="131.081,-118.252 128.01,-108.112 124.087,-117.954 131.081,-118.252"/>
</g>
<!-- Commands&#45;&gt;Move -->
<g id="edge15" class="edge"><title>Commands&#45;&gt;Move</title>
<path fill="none" stroke="black" d="M130.019,-108.169C131.253,-118.534 132.782,-132.014 133.907,-144 138.287,-190.681 142.067,-245.098 144.16,-277.211"/>
<polygon fill="black" stroke="black" points="140.693,-277.835 144.829,-287.59 147.679,-277.385 140.693,-277.835"/>
</g>
<!-- Commands&#45;&gt;Commands -->
<g id="edge14" class="edge"><title>Commands&#45;&gt;Commands</title>
<path fill="none" stroke="black" d="M155.921,-102.854C171.494,-105.253 185.835,-100.969 185.835,-90 185.835,-81.5164 177.256,-77.0312 166.164,-76.5444"/>
<polygon fill="black" stroke="black" points="165.699,-73.0656 155.921,-77.146 166.11,-80.0536 165.699,-73.0656"/>
</g>
<!-- Commands&#45;&gt;Cleanup -->
<g id="edge16" class="edge"><title>Commands&#45;&gt;Cleanup</title>
<path fill="none" stroke="black" d="M119.139,-72.411C114.715,-64.0421 109.254,-53.7098 104.317,-44.3698"/>
<polygon fill="black" stroke="black" points="107.38,-42.6753 99.6125,-35.4699 101.191,-45.9465 107.38,-42.6753"/>
</g>
<!-- Cleanup&#45;&gt;Cleanup -->
<g id="edge20" class="edge"><title>Cleanup&#45;&gt;Cleanup</title>
<path fill="none" stroke="black" d="M113.643,-30.6027C127.483,-33.5212 140.581,-29.3203 140.581,-18 140.581,-9.50977 133.213,-5.0242 123.691,-4.54331"/>
<polygon fill="black" stroke="black" points="123.31,-1.06291 113.643,-5.39731 123.903,-8.03777 123.31,-1.06291"/>
</g>
</g>
</svg>
